<svg width="122" height="119" viewBox="0 0 122 119" fill="none" xmlns="http://www.w3.org/2000/svg">
<rect x="0.5" y="4.5" width="117.025" height="114" rx="57" fill="white"/>
<rect x="0.5" y="4.5" width="117.025" height="114" rx="57" stroke="#E9EEF2"/>
<path d="M67.4684 60.561C69.2645 59.2111 69.6263 56.661 68.2766 54.8652C66.927 53.0693 64.3768 52.7078 62.5807 54.0577C60.7846 55.4075 60.4228 57.9577 61.7724 59.7535C63.1221 61.5493 65.6723 61.9109 67.4684 60.561Z" fill="#008CF0"/>
<path d="M69.2775 64.2934C69.4887 63.5924 69.5145 63.0774 69.5145 62.8803C69.5145 62.8528 69.5142 62.8378 69.5138 62.832C69.4475 61.8459 70.1931 60.9822 71.1763 60.9048C71.2244 60.901 71.2723 60.899 71.32 60.899C72.2561 60.899 73.0473 61.6314 73.121 62.5658C73.1232 62.5926 73.1315 62.7022 73.1315 62.8806C73.1319 63.5465 73.0089 65.2654 71.9246 67.294L75.3475 68.6116L75.6718 69.1236L71.3824 67.4725C70.2426 67.0338 68.9559 67.5832 68.4852 68.71L64.6272 77.9325C64.1458 79.0841 64.6886 80.4084 65.8404 80.8903C66.1254 81.0095 66.4211 81.0661 66.7117 81.0661C67.5958 81.0663 68.4357 80.544 68.7981 79.6772L71.8081 72.4811L76.374 74.2383C77.1782 74.5477 78.0504 74.3667 78.6609 73.8421C78.6612 73.8419 78.6612 73.8417 78.6616 73.8415C78.6864 73.8204 78.709 73.7971 78.7327 73.7748C78.7605 73.7486 78.7893 73.724 78.816 73.6963C79.7711 72.9722 80.4358 71.8407 79.983 69.852C78.7886 65.988 77.5876 63.9225 74.9887 61.0817C73.0861 59.0271 70.7001 59.1638 69.4435 60.1393C68.3253 61.007 68.4013 62.8787 69.2775 64.2934Z" fill="#008CF0"/>
<path d="M72.0066 72.9449L69.6871 78.4904L78.1806 80.708C78.3722 80.758 78.5638 80.7818 78.7528 80.7818C79.7567 80.7818 80.6732 80.1084 80.9388 79.0917C81.2542 77.8839 80.5305 76.6493 79.3228 76.3339L75.504 75.3364L76.7299 74.798L72.0066 72.9449Z" fill="#008CF0"/>
<path d="M70.5727 66.96C70.8944 66.96 71.2102 67.0192 71.5118 67.1354L71.5838 67.1631C72.6462 65.1947 72.7695 63.5322 72.7692 62.8808C72.7692 62.7273 72.7628 62.6291 72.76 62.594C72.697 61.7976 72.0006 61.2028 71.2044 61.2654C70.4128 61.3276 69.8206 62.0153 69.8745 62.8054H69.8741C69.8741 62.8058 69.8756 62.8269 69.8756 62.8808C69.8752 63.1971 69.8152 64.4462 68.9354 65.9766C68.0502 67.506 66.351 69.3742 62.8264 70.9367C62.0955 71.2593 61.7642 72.1136 62.0873 72.8446C62.326 73.3855 62.8557 73.7077 63.4118 73.7077C63.6067 73.7077 63.8053 73.6681 63.9954 73.5842C64.977 73.1524 65.8522 72.6863 66.6335 72.1988L68.1512 68.5704C68.5603 67.5922 69.5106 66.96 70.5727 66.96ZM69.8756 62.821L69.8759 62.8208V62.8213L69.8756 62.821Z" fill="#008CF0"/>
<path d="M41.1952 50.0614H41.8726V56.7111H47.1678V56.9572C47.1678 57.2292 47.3882 57.45 47.6602 57.45H51.8472C52.1192 57.45 52.3396 57.2292 52.3396 56.9572V56.7111H52.6355H52.7091C52.8926 56.7111 53.4851 56.7111 55.1721 56.7111C58.0135 56.7111 58.7204 51.2839 58.8437 50.0614H59.6052C59.8772 50.0614 60.098 49.841 60.098 49.5687V48.0912C60.098 47.8189 59.8772 47.5984 59.6052 47.5984H44.3355V44.1757H46.5518C46.5518 44.1757 46.5589 44.1753 46.5857 44.1771C46.6783 44.1825 46.9338 44.2192 47.1361 44.3518C47.336 44.4887 47.5056 44.6778 47.5121 45.1357H48.0552C48.0644 44.4239 47.6638 43.9912 47.2891 43.8154C46.9159 43.6311 46.5746 43.6346 46.552 43.633H44.3355V43.1655H44.5816V41.934H42.365V43.1655H42.6115V47.5986H41.1952C40.9232 47.5986 40.7028 47.819 40.7028 48.0914V49.5688C40.7028 49.8412 40.9232 50.0614 41.1952 50.0614Z" fill="#008CF0"/>
<path d="M37.0123 60.0287V61.8375H41.0087V63.8739C41.0094 66.539 43.1685 68.6978 45.8337 68.6985C48.4984 68.6978 50.6576 66.5391 50.6583 63.8739V58.1892H48.8499V63.8739C48.847 65.5394 47.4992 66.8867 45.8337 66.8898C44.1678 66.8867 42.82 65.5391 42.8171 63.8739V60.0287H37.0123Z" fill="#008CF0"/>
<path d="M46.7064 79.493C47.5657 79.493 49.1396 79.5357 50.7404 79.5357C51.9997 79.5357 53.2758 79.5093 54.2467 79.4125C54.733 79.3637 55.1413 79.299 55.4438 79.2049C55.5958 79.1572 55.7214 79.1039 55.8242 79.0292C55.9238 78.9577 56.0135 78.8429 56.0131 78.6973C56.0131 78.6827 56.0124 78.6682 56.011 78.6539C55.9829 78.4485 55.8327 78.3148 55.6623 78.2242C55.0643 77.9137 53.8564 77.8526 52.7578 77.7989C52.2124 77.7741 51.7003 77.7573 51.3319 77.7266C51.1485 77.7114 50.9992 77.6919 50.9095 77.6703C50.9015 77.6685 50.8939 77.6665 50.8872 77.6647C50.9042 77.5394 50.9554 77.3935 50.9599 77.2173C50.9643 77.0786 50.9031 76.9086 50.7586 76.7969C50.3369 76.4795 49.3967 76.3571 46.7064 76.3469C46.6617 76.3469 46.6178 76.3473 46.5733 76.3475C46.5686 75.5735 46.0449 74.4244 46.0449 74.4244C46.0449 74.4244 45.5165 75.5838 45.5163 76.3578C43.4986 76.3936 41.6895 76.5196 40.3137 76.7059C39.4921 76.8177 38.8259 76.9499 38.3525 77.1014C38.1152 77.1779 37.9262 77.2575 37.7832 77.3522C37.6449 77.4446 37.5233 77.5656 37.5192 77.7492C37.5184 77.8589 37.5817 77.9517 37.6506 78.0071C37.8912 78.1926 38.3111 78.2639 38.9878 78.3344C39.6594 78.3973 40.5663 78.4273 41.6863 78.4273C42.042 78.4273 42.4192 78.4243 42.8172 78.4185C42.8854 78.417 42.9512 78.4167 43.0162 78.4167C44.5018 78.4234 44.8238 78.6695 45.0877 78.9067C45.3532 79.1671 45.655 79.5109 46.7064 79.493ZM41.6864 78.0656C40.4142 78.0656 39.4218 78.0262 38.7577 77.9463C38.4264 77.9065 38.176 77.8553 38.0252 77.8004C37.9577 77.7767 37.9114 77.7513 37.8892 77.7351C37.8899 77.7344 37.8906 77.7334 37.8913 77.7325C37.9378 77.6532 38.2485 77.4893 38.7315 77.3678C40.0242 77.0244 42.5536 76.7716 45.5394 76.7191C45.6052 77.1636 45.8065 77.2275 46.0451 77.2275C46.2852 77.2275 46.4874 77.1622 46.5519 76.7094C46.6038 76.7092 46.6547 76.7086 46.7067 76.7086C48.4855 76.7079 49.4989 76.7797 50.0436 76.8962C50.3161 76.9528 50.4664 77.0233 50.5308 77.0775C50.5925 77.1338 50.5941 77.151 50.5986 77.2173C50.6042 77.3213 50.5246 77.5105 50.5205 77.749C50.5272 77.8893 50.6254 77.9467 50.6787 77.9727C50.8935 78.0682 51.2545 78.0861 51.7581 78.1163C52.5012 78.155 53.4942 78.1769 54.3027 78.2689C54.706 78.3148 55.0641 78.3792 55.3098 78.4657C55.5659 78.5516 55.6587 78.661 55.6514 78.6973L55.65 78.6993C55.6431 78.7308 55.467 78.8395 55.1769 78.9035C54.304 79.1185 52.5009 79.1751 50.7406 79.1738C49.1452 79.1742 47.5759 79.1312 46.7066 79.1312C45.6971 79.1133 45.6501 78.919 45.3336 78.6411C45.0157 78.34 44.5231 78.0483 43.0163 78.0548C42.9509 78.0548 42.8818 78.0548 42.8105 78.0566C42.4154 78.0624 42.0402 78.0656 41.6864 78.0656Z" fill="#008CF0"/>
<path d="M53.3034 77.534C53.789 77.5336 54.2279 77.4875 54.5579 77.4096C54.7232 77.3694 54.8613 77.3233 54.972 77.2615C55.076 77.2009 55.1916 77.115 55.199 76.9448C55.1916 76.7743 55.0756 76.6888 54.972 76.6282C54.6467 76.4513 54.0354 76.3598 53.3034 76.3558C52.8177 76.3558 52.3789 76.402 52.0489 76.4801C51.8836 76.5199 51.7456 76.5663 51.635 76.6282C51.5312 76.6888 51.4154 76.7743 51.4078 76.9448C51.4154 77.115 51.5308 77.2009 51.635 77.2615C51.9603 77.4383 52.5714 77.53 53.3034 77.534ZM52.2477 76.807C52.529 76.7515 52.8994 76.7172 53.3034 76.7175C53.7649 76.7172 54.1834 76.7625 54.4738 76.8322C54.6187 76.8663 54.7322 76.9078 54.7944 76.9434C54.7955 76.9437 54.7962 76.9443 54.7973 76.9448C54.721 76.9859 54.5613 77.0472 54.3591 77.0826C54.0778 77.1378 53.7074 77.1727 53.3034 77.1727C52.8419 77.1727 52.4236 77.1271 52.1326 77.0575C51.9882 77.0237 51.8748 76.9819 51.8124 76.9461C51.8117 76.9456 51.8107 76.9452 51.8098 76.9447C51.8865 76.9036 52.0458 76.8423 52.2477 76.807Z" fill="#008CF0"/>
<path d="M42.2486 79.0061C41.7023 79.0061 41.2084 79.0607 40.8382 79.1524C40.6529 79.1994 40.4986 79.254 40.3762 79.3255C40.2601 79.3953 40.1413 79.4938 40.1351 79.6689C40.1413 79.8439 40.2601 79.9425 40.3762 80.0121C40.7357 80.2176 41.426 80.3277 42.2486 80.3317C42.7949 80.3313 43.289 80.277 43.659 80.1852C43.8445 80.1385 43.9988 80.0837 44.1214 80.0121C44.2373 79.9423 44.3559 79.8438 44.3623 79.6689C44.3559 79.4936 44.2373 79.3951 44.1214 79.3255C43.7615 79.1202 43.0716 79.0099 42.2486 79.0061ZM43.3807 79.8758C43.0707 79.9342 42.6763 79.9703 42.2486 79.9703C41.7272 79.9703 41.2551 79.9168 40.9259 79.8345C40.7617 79.7937 40.6333 79.7445 40.5597 79.7009C40.54 79.6893 40.5245 79.6779 40.5134 79.6689C40.5802 79.6085 40.81 79.5175 41.1169 79.462C41.4269 79.4036 41.8209 79.3678 42.2488 79.3678C42.77 79.3672 43.2421 79.4211 43.5716 79.5038C43.736 79.5439 43.8644 79.5937 43.9375 79.6371C43.9575 79.6486 43.9731 79.66 43.9843 79.6692C43.9172 79.7295 43.6876 79.8204 43.3807 79.8758Z" fill="#008CF0"/>
<path d="M46.0458 72.6962C46.3379 72.6962 46.5746 72.6007 46.5746 71.8267C46.5746 71.0526 46.0458 69.8932 46.0458 69.8932C46.0458 69.8932 45.5172 71.0526 45.5172 71.8267C45.5172 72.6007 45.7539 72.6962 46.0458 72.6962Z" fill="#008CF0"/>
<path d="M47.3012 45.335L46.5778 47.2111L46.915 47.3411L47.6385 45.4651L47.3012 45.335Z" fill="#008CF0"/>
<path d="M48.2716 45.335L47.9341 45.465L48.6567 47.3414L48.9943 47.2114L48.2716 45.335Z" fill="#008CF0"/>
<rect x="82" width="40" height="40" rx="20" fill="#E9EEF2"/>
<path d="M100.98 20.0029C100.98 20.8096 100.917 21.5296 100.789 22.1631C100.666 22.7965 100.465 23.3343 100.188 23.7764C99.9141 24.2184 99.554 24.5557 99.1074 24.7881C98.6608 25.0205 98.1185 25.1367 97.4805 25.1367C96.6784 25.1367 96.0199 24.9339 95.5049 24.5283C94.9899 24.1182 94.6094 23.5303 94.3633 22.7646C94.1172 21.9945 93.9941 21.0739 93.9941 20.0029C93.9941 18.9229 94.1058 18 94.3291 17.2344C94.557 16.4642 94.9261 15.874 95.4365 15.4639C95.9469 15.0537 96.6283 14.8486 97.4805 14.8486C98.278 14.8486 98.9342 15.0537 99.4492 15.4639C99.9688 15.8695 100.354 16.4574 100.604 17.2275C100.855 17.9932 100.98 18.9183 100.98 20.0029ZM96.0928 20.0029C96.0928 20.764 96.1338 21.3997 96.2158 21.9102C96.3024 22.416 96.446 22.7965 96.6465 23.0518C96.847 23.307 97.125 23.4346 97.4805 23.4346C97.8314 23.4346 98.1071 23.3092 98.3076 23.0586C98.5127 22.8034 98.6585 22.4229 98.7451 21.917C98.8317 21.4066 98.875 20.7686 98.875 20.0029C98.875 19.2419 98.8317 18.6061 98.7451 18.0957C98.6585 17.5853 98.5127 17.2025 98.3076 16.9473C98.1071 16.6875 97.8314 16.5576 97.4805 16.5576C97.125 16.5576 96.847 16.6875 96.6465 16.9473C96.446 17.2025 96.3024 17.5853 96.2158 18.0957C96.1338 18.6061 96.0928 19.2419 96.0928 20.0029ZM108.283 25H106.171V19.2168C106.171 19.0573 106.173 18.8613 106.178 18.6289C106.182 18.3919 106.189 18.1504 106.198 17.9043C106.207 17.6536 106.216 17.4281 106.226 17.2275C106.175 17.2868 106.073 17.3893 105.918 17.5352C105.768 17.6764 105.626 17.804 105.494 17.918L104.346 18.8408L103.327 17.5693L106.547 15.0059H108.283V25Z" fill="#041F39"/>
</svg>
