<svg width="122" height="119" viewBox="0 0 122 119" fill="none" xmlns="http://www.w3.org/2000/svg">
<rect x="0.5" y="4.5" width="117.025" height="114" rx="57" fill="white"/>
<rect x="0.5" y="4.5" width="117.025" height="114" rx="57" stroke="#E9EEF2"/>
<path d="M59.9135 79.234C59.806 79.3767 59.646 79.4707 59.4691 79.495C59.4382 79.4996 59.4073 79.5016 59.3764 79.5016C59.2308 79.5016 59.0881 79.4542 58.9705 79.3655L41.6021 66.2381C41.3056 66.014 41.2468 65.5919 41.4709 65.2954L55.4533 46.7825C55.5607 46.6398 55.7205 46.5458 55.8973 46.5215C56.0762 46.4952 56.254 46.5432 56.3963 46.651L73.7713 59.7783C73.9136 59.8861 74.0076 60.0459 74.0319 60.2227C74.0566 60.3996 74.0099 60.5791 73.9024 60.7211L70.3065 65.4788C71.4478 65.4914 72.5396 65.692 73.5665 66.0172L78.4228 59.7027C78.5336 59.5588 78.5816 59.376 78.5556 59.1965L75.7685 39.8618C75.7156 39.4963 75.378 39.2412 75.0128 39.2905L55.6449 41.8827C55.4667 41.9064 55.3053 42.0011 55.1972 42.1444L37.1487 66.0429C36.9246 66.3394 36.9834 66.7614 37.2796 66.9856L59.2124 83.5795C59.334 83.6709 59.4767 83.7156 59.6183 83.7156C59.8202 83.7156 60.02 83.6249 60.1525 83.4527L63.5872 78.9847C62.7454 78.4697 61.9886 77.9091 61.3277 77.3618L59.9135 79.234ZM68.7473 43.9433C69.2657 43.2499 70.0668 42.8797 70.8746 42.8797C71.4334 42.8797 71.9989 43.0547 72.4835 43.4182C73.049 43.8491 73.4193 44.4751 73.5136 45.182C73.6145 45.8821 73.4328 46.589 73.0019 47.1544C72.4768 47.8478 71.6757 48.2114 70.8679 48.2114C70.3091 48.2114 69.7437 48.0363 69.2657 47.6728C68.0943 46.7909 67.8587 45.1147 68.7473 43.9433Z" fill="#008CF0"/>
<path d="M68.5087 65.6237L72.4215 60.4467L56.1211 48.1306L42.9501 65.5693L59.2445 77.8848L60.3143 76.4687C59.2029 75.4267 58.5307 74.5888 58.4573 74.4951C57.886 73.7594 57.8866 72.7398 58.4546 72.0101C58.6462 71.7648 62.8068 66.5429 68.5087 65.6237Z" fill="#008CF0"/>
<path d="M80.8712 72.8369C80.676 72.5877 76.0578 66.8185 70.1943 66.8185C64.3307 66.8185 59.7126 72.5877 59.5174 72.8369C59.3288 73.0792 59.3288 73.4225 59.5174 73.6649C59.7126 73.9139 64.3307 79.6833 70.1943 79.6833C76.0578 79.6833 80.676 73.9139 80.8712 73.6649C81.0597 73.4225 81.0597 73.0792 80.8712 72.8369ZM70.1943 77.6098C67.9525 77.6098 66.0877 75.9268 65.8589 73.6985C65.8387 73.4764 65.9262 73.2542 66.1012 73.1129C66.2695 72.9715 66.5052 72.9176 66.7205 72.985C66.9629 73.0523 67.2187 73.0926 67.488 73.0926C68.2958 73.0926 68.9488 72.7897 69.3797 72.2175C69.8711 71.5645 70.0327 70.6221 69.7903 69.7604C69.7298 69.5516 69.7769 69.3228 69.9115 69.1545C70.0529 68.9862 70.2616 68.8919 70.4837 68.9054C72.7659 69.0602 74.5498 70.9654 74.5498 73.2542C74.5498 75.6576 72.5976 77.6098 70.1943 77.6098Z" fill="#008CF0"/>
<rect x="82" width="40" height="40" rx="20" fill="#E9EEF2"/>
<path d="M100.98 20.0029C100.98 20.8096 100.917 21.5296 100.789 22.1631C100.666 22.7965 100.465 23.3343 100.188 23.7764C99.9141 24.2184 99.554 24.5557 99.1074 24.7881C98.6608 25.0205 98.1185 25.1367 97.4805 25.1367C96.6784 25.1367 96.0199 24.9339 95.5049 24.5283C94.9899 24.1182 94.6094 23.5303 94.3633 22.7646C94.1172 21.9945 93.9941 21.0739 93.9941 20.0029C93.9941 18.9229 94.1058 18 94.3291 17.2344C94.557 16.4642 94.9261 15.874 95.4365 15.4639C95.9469 15.0537 96.6283 14.8486 97.4805 14.8486C98.278 14.8486 98.9342 15.0537 99.4492 15.4639C99.9688 15.8695 100.354 16.4574 100.604 17.2275C100.855 17.9932 100.98 18.9183 100.98 20.0029ZM96.0928 20.0029C96.0928 20.764 96.1338 21.3997 96.2158 21.9102C96.3024 22.416 96.446 22.7965 96.6465 23.0518C96.847 23.307 97.125 23.4346 97.4805 23.4346C97.8314 23.4346 98.1071 23.3092 98.3076 23.0586C98.5127 22.8034 98.6585 22.4229 98.7451 21.917C98.8317 21.4066 98.875 20.7686 98.875 20.0029C98.875 19.2419 98.8317 18.6061 98.7451 18.0957C98.6585 17.5853 98.5127 17.2025 98.3076 16.9473C98.1071 16.6875 97.8314 16.5576 97.4805 16.5576C97.125 16.5576 96.847 16.6875 96.6465 16.9473C96.446 17.2025 96.3024 17.5853 96.2158 18.0957C96.1338 18.6061 96.0928 19.2419 96.0928 20.0029ZM110.047 25H103.061V23.5303L105.569 20.9941C106.075 20.4746 106.481 20.0417 106.786 19.6953C107.096 19.3444 107.319 19.0254 107.456 18.7383C107.597 18.4512 107.668 18.1436 107.668 17.8154C107.668 17.4189 107.556 17.1227 107.333 16.9268C107.114 16.7262 106.82 16.626 106.451 16.626C106.064 16.626 105.688 16.7148 105.323 16.8926C104.959 17.0703 104.578 17.3232 104.182 17.6514L103.033 16.291C103.32 16.0449 103.623 15.8125 103.942 15.5938C104.266 15.375 104.64 15.1995 105.063 15.0674C105.492 14.9307 106.005 14.8623 106.602 14.8623C107.258 14.8623 107.821 14.9808 108.29 15.2178C108.764 15.4548 109.129 15.7783 109.384 16.1885C109.639 16.5941 109.767 17.0544 109.767 17.5693C109.767 18.1208 109.657 18.6243 109.438 19.0801C109.22 19.5358 108.901 19.987 108.481 20.4336C108.067 20.8802 107.565 21.3747 106.978 21.917L105.692 23.127V23.2227H110.047V25Z" fill="#041F39"/>
</svg>
