<svg width="122" height="119" viewBox="0 0 122 119" fill="none" xmlns="http://www.w3.org/2000/svg">
<rect x="0.5" y="4.5" width="117.025" height="114" rx="57" fill="white"/>
<rect x="0.5" y="4.5" width="117.025" height="114" rx="57" stroke="#E9EEF2"/>
<path d="M65.4308 76.6583V77.0025C65.4308 77.8744 64.7237 78.5815 63.8518 78.5815H54.1732C53.3013 78.5815 52.5942 77.8744 52.5942 77.0025V76.6583C52.5942 75.7843 53.2993 75.0751 54.1732 75.073H63.8518C64.7258 75.0751 65.4308 75.7843 65.4308 76.6583ZM63.8518 66.5498H54.1732C53.2993 66.554 52.5942 67.2632 52.5942 68.1352V68.4814C52.5942 69.3533 53.2993 70.0625 54.1732 70.0667H63.8518C64.7258 70.0626 65.4308 69.3534 65.4308 68.4814V68.1352C65.4308 67.2633 64.7258 66.5541 63.8518 66.5498ZM57.5043 53.8238C57.0287 53.319 56.234 53.294 55.7271 53.7716C55.2223 54.2472 55.1994 55.0419 55.675 55.5488L57.7713 57.7745V57.7724C58.0091 58.0206 58.3366 58.1625 58.6787 58.1625H58.7392C59.1042 58.1416 59.44 57.9664 59.6632 57.6785L63.3073 53.0124C63.7328 52.4659 63.6348 51.6795 63.0903 51.2539C62.5439 50.8284 61.7575 50.9264 61.3319 51.4709L58.8789 54.6143C58.8059 54.7103 58.6932 54.7707 58.5722 54.777C58.4513 54.7833 58.3324 54.7353 58.251 54.6477L57.5043 53.8238ZM54.5068 43.3047H63.5179C64.2605 43.2922 64.9217 42.8312 65.1867 42.1366L66.1879 39.5H51.8139L52.8151 42.1366C53.0842 42.8374 53.7559 43.3026 54.5068 43.3047ZM71.6218 42.6998V80.3002C71.6197 82.067 70.1888 83.4958 68.4241 83.5H49.6009C47.8362 83.4958 46.4053 82.067 46.4032 80.3002V42.6998C46.4053 40.933 47.8362 39.5042 49.6009 39.5H50.9255L52.0372 42.437C52.4315 43.4591 53.4118 44.1349 54.5069 44.139H63.518C64.6131 44.1349 65.5935 43.4591 65.9877 42.437L67.0995 39.5H68.4241C70.1888 39.5042 71.6197 40.933 71.6218 42.6998ZM60.6814 50.9307L58.5287 53.7112L58.1011 53.2669C57.3064 52.4326 55.986 52.3992 55.1496 53.1918C54.3132 53.9866 54.2798 55.3069 55.0745 56.1434L57.1709 58.3398C57.5651 58.7549 58.1116 58.9906 58.6852 58.9906H58.7853C59.3986 58.9594 59.968 58.6569 60.3372 58.1625L63.9813 53.4901H63.9792C64.6863 52.5786 64.5215 51.2686 63.61 50.5615C62.6985 49.8544 61.3885 50.0213 60.6814 50.9307ZM66.2445 76.6584C66.2445 75.3318 65.1765 74.2534 63.8519 74.2388H54.1734C52.8488 74.2534 51.7808 75.3318 51.7808 76.6584V77.0026C51.785 78.3355 52.8634 79.4139 54.1963 79.4159H63.8519C65.1744 79.4013 66.2403 78.325 66.2444 77.0026L66.2445 76.6584ZM66.2445 68.1375V68.1354C66.2403 66.8025 65.1619 65.7221 63.829 65.7158H54.1734C52.8488 65.7346 51.785 66.8109 51.7809 68.1354V68.4817C51.7809 69.8062 52.8488 70.8846 54.1734 70.9013H63.852C65.1766 70.8846 66.2445 69.8062 66.2445 68.4817L66.2445 68.1375ZM66.2445 55.0109V55.0089C66.2445 54.7794 66.0568 54.5917 65.8273 54.5917C65.5958 54.5917 65.4101 54.7794 65.4101 55.0089C65.4101 57.6079 63.8436 59.9483 61.4427 60.941C59.0398 61.9339 56.278 61.3811 54.4448 59.5392C52.6092 57.6995 52.0669 54.9356 53.066 52.537C54.0672 50.1382 56.4139 48.58 59.0131 48.5905C59.2425 48.5905 59.4303 48.4028 59.4303 48.1733C59.4303 47.9418 59.2425 47.7561 59.0131 47.7561C56.0886 47.7561 53.4521 49.5167 52.3318 52.22C51.2137 54.9212 51.8312 58.0314 53.9004 60.1006C55.9675 62.1678 59.0776 62.7872 61.781 61.6671C64.4823 60.5491 66.2449 57.9104 66.2449 54.9858L66.2445 55.0109Z" fill="#008CF0"/>
<rect x="82" width="40" height="40" rx="20" fill="#E9EEF2"/>
<path d="M100.98 20.0029C100.98 20.8096 100.917 21.5296 100.789 22.1631C100.666 22.7965 100.465 23.3343 100.188 23.7764C99.9141 24.2184 99.554 24.5557 99.1074 24.7881C98.6608 25.0205 98.1185 25.1367 97.4805 25.1367C96.6784 25.1367 96.0199 24.9339 95.5049 24.5283C94.9899 24.1182 94.6094 23.5303 94.3633 22.7646C94.1172 21.9945 93.9941 21.0739 93.9941 20.0029C93.9941 18.9229 94.1058 18 94.3291 17.2344C94.557 16.4642 94.9261 15.874 95.4365 15.4639C95.9469 15.0537 96.6283 14.8486 97.4805 14.8486C98.278 14.8486 98.9342 15.0537 99.4492 15.4639C99.9688 15.8695 100.354 16.4574 100.604 17.2275C100.855 17.9932 100.98 18.9183 100.98 20.0029ZM96.0928 20.0029C96.0928 20.764 96.1338 21.3997 96.2158 21.9102C96.3024 22.416 96.446 22.7965 96.6465 23.0518C96.847 23.307 97.125 23.4346 97.4805 23.4346C97.8314 23.4346 98.1071 23.3092 98.3076 23.0586C98.5127 22.8034 98.6585 22.4229 98.7451 21.917C98.8317 21.4066 98.875 20.7686 98.875 20.0029C98.875 19.2419 98.8317 18.6061 98.7451 18.0957C98.6585 17.5853 98.5127 17.2025 98.3076 16.9473C98.1071 16.6875 97.8314 16.5576 97.4805 16.5576C97.125 16.5576 96.847 16.6875 96.6465 16.9473C96.446 17.2025 96.3024 17.5853 96.2158 18.0957C96.1338 18.6061 96.0928 19.2419 96.0928 20.0029ZM109.657 17.2412C109.657 17.7015 109.562 18.1003 109.37 18.4375C109.179 18.7747 108.919 19.0505 108.591 19.2646C108.267 19.4788 107.903 19.6361 107.497 19.7363V19.7773C108.299 19.8776 108.908 20.1237 109.322 20.5156C109.742 20.9076 109.951 21.4316 109.951 22.0879C109.951 22.6712 109.808 23.193 109.521 23.6533C109.238 24.1136 108.8 24.4759 108.208 24.7402C107.616 25.0046 106.852 25.1367 105.918 25.1367C105.367 25.1367 104.852 25.0911 104.373 25C103.899 24.9134 103.452 24.779 103.033 24.5967V22.7988C103.462 23.0176 103.91 23.1839 104.38 23.2979C104.849 23.4072 105.287 23.4619 105.692 23.4619C106.449 23.4619 106.978 23.332 107.278 23.0723C107.584 22.8079 107.736 22.4388 107.736 21.9648C107.736 21.6868 107.666 21.4521 107.524 21.2607C107.383 21.0693 107.137 20.9235 106.786 20.8232C106.44 20.723 105.954 20.6729 105.33 20.6729H104.571V19.0527H105.344C105.959 19.0527 106.426 18.9958 106.745 18.8818C107.069 18.7633 107.287 18.6038 107.401 18.4033C107.52 18.1982 107.579 17.9658 107.579 17.7061C107.579 17.3506 107.47 17.0726 107.251 16.8721C107.032 16.6715 106.668 16.5713 106.157 16.5713C105.838 16.5713 105.547 16.6123 105.282 16.6943C105.022 16.7718 104.788 16.8675 104.578 16.9814C104.368 17.0908 104.184 17.1979 104.024 17.3027L103.047 15.8467C103.439 15.5641 103.897 15.3294 104.421 15.1426C104.95 14.9557 105.578 14.8623 106.308 14.8623C107.338 14.8623 108.153 15.0697 108.755 15.4844C109.356 15.8991 109.657 16.4847 109.657 17.2412Z" fill="#041F39"/>
</svg>
