<svg width="122" height="119" viewBox="0 0 122 119" fill="none" xmlns="http://www.w3.org/2000/svg">
<rect x="0.5" y="4.5" width="117.025" height="114" rx="57" fill="white"/>
<rect x="0.5" y="4.5" width="117.025" height="114" rx="57" stroke="#E9EEF2"/>
<path fill-rule="evenodd" clip-rule="evenodd" d="M61.1779 39.5001H52.6968C50.8173 39.5001 49.2801 39.5001 48.066 39.6635C46.7974 39.8347 45.6981 40.2024 44.8206 41.0819C43.9431 41.9594 43.5734 43.0588 43.4021 44.3274C43.2387 45.5415 43.2387 47.0766 43.2387 48.9581V74.0419C43.2387 75.9215 43.2387 77.4586 43.4021 78.6727C43.5734 79.9413 43.943 81.0406 44.8206 81.9181C45.6981 82.7956 46.7974 83.1653 48.066 83.3366C49.2801 83.5 50.8153 83.5 52.6968 83.5H63.2077C64.1377 83.5 64.8985 83.5 65.5192 83.4572C66.1613 83.4124 66.7449 83.3191 67.3033 83.0895C68.6264 82.5408 69.6771 81.4901 70.2239 80.169C70.4554 79.6105 70.5488 79.0268 70.5935 78.3828C70.6344 77.7621 70.6344 77.0014 70.6344 76.0713V73.7657C68.8133 75.7367 65.6826 75.7036 63.9041 73.6664C63.0811 72.7247 61.5556 70.9055 60.2151 68.9014C59.5438 67.8994 58.8686 66.7748 58.3491 65.6365C57.8608 64.5605 57.3529 63.1422 57.3529 61.642C57.3529 56.1415 61.7347 51.5381 67.3149 51.5381C68.4843 51.5381 69.5992 51.7404 70.6343 52.1101V48.9581C70.6343 47.0766 70.6343 45.5414 70.4728 44.3273C70.3016 43.0587 69.9319 41.9594 69.0544 41.0819C68.1769 40.2024 67.0775 39.8347 65.809 39.6634C64.5948 39.5 63.0575 39.5001 61.1779 39.5001ZM53.6168 78.1028C53.6168 77.4159 54.1732 76.8575 54.862 76.8575H59.0122C59.699 76.8575 60.2574 77.4159 60.2574 78.1028C60.2574 78.7915 59.699 79.348 59.0122 79.348H54.862C54.1732 79.348 53.6168 78.7915 53.6168 78.1028ZM60.0164 41.9906H53.8583C54.3506 43.2086 55.5433 44.0666 56.9365 44.0666C58.3315 44.0666 59.5241 43.2086 60.0164 41.9906Z" fill="#008CF0"/>
<path fill-rule="evenodd" clip-rule="evenodd" d="M59.8432 61.642C59.8432 57.4627 63.1606 54.0286 67.3147 54.0286C71.4668 54.0286 74.7862 57.4627 74.7862 61.642C74.7862 62.6168 74.4457 63.65 74.0118 64.6014C73.5682 65.5762 72.9709 66.5783 72.3443 67.5161C71.0874 69.3937 69.6417 71.1196 68.8479 72.0282C68.0327 72.9621 66.5948 72.9621 65.7815 72.0282C64.9876 71.1196 63.54 69.3937 62.2851 67.5161C61.6566 66.5783 61.0593 65.5763 60.6157 64.6014C60.1818 63.65 59.8432 62.6168 59.8432 61.642ZM63.9934 61.5C63.9934 59.6652 65.4799 58.1787 67.3147 58.1787C69.1475 58.1787 70.6341 59.6652 70.6341 61.5C70.6341 63.3348 69.1475 64.8213 67.3147 64.8213C65.4799 64.8213 63.9934 63.3348 63.9934 61.5Z" fill="#008CF0"/>
<rect x="82" width="40" height="40" rx="20" fill="#E9EEF2"/>
<path d="M100.98 20.0029C100.98 20.8096 100.917 21.5296 100.789 22.1631C100.666 22.7965 100.465 23.3343 100.188 23.7764C99.9141 24.2184 99.554 24.5557 99.1074 24.7881C98.6608 25.0205 98.1185 25.1367 97.4805 25.1367C96.6784 25.1367 96.0199 24.9339 95.5049 24.5283C94.9899 24.1182 94.6094 23.5303 94.3633 22.7646C94.1172 21.9945 93.9941 21.0739 93.9941 20.0029C93.9941 18.9229 94.1058 18 94.3291 17.2344C94.557 16.4642 94.9261 15.874 95.4365 15.4639C95.9469 15.0537 96.6283 14.8486 97.4805 14.8486C98.278 14.8486 98.9342 15.0537 99.4492 15.4639C99.9688 15.8695 100.354 16.4574 100.604 17.2275C100.855 17.9932 100.98 18.9183 100.98 20.0029ZM96.0928 20.0029C96.0928 20.764 96.1338 21.3997 96.2158 21.9102C96.3024 22.416 96.446 22.7965 96.6465 23.0518C96.847 23.307 97.125 23.4346 97.4805 23.4346C97.8314 23.4346 98.1071 23.3092 98.3076 23.0586C98.5127 22.8034 98.6585 22.4229 98.7451 21.917C98.8317 21.4066 98.875 20.7686 98.875 20.0029C98.875 19.2419 98.8317 18.6061 98.7451 18.0957C98.6585 17.5853 98.5127 17.2025 98.3076 16.9473C98.1071 16.6875 97.8314 16.5576 97.4805 16.5576C97.125 16.5576 96.847 16.6875 96.6465 16.9473C96.446 17.2025 96.3024 17.5853 96.2158 18.0957C96.1338 18.6061 96.0928 19.2419 96.0928 20.0029ZM110.272 22.9287H109.069V25H107.005V22.9287H102.739V21.459L107.121 15.0059H109.069V21.2881H110.272V22.9287ZM107.005 21.2881V19.5928C107.005 19.4333 107.007 19.2441 107.012 19.0254C107.021 18.8066 107.03 18.5879 107.039 18.3691C107.048 18.1504 107.057 17.9567 107.066 17.7881C107.08 17.6149 107.089 17.4941 107.094 17.4258H107.039C106.952 17.6126 106.861 17.7949 106.766 17.9727C106.67 18.1458 106.558 18.3281 106.431 18.5195L104.599 21.2881H107.005Z" fill="#041F39"/>
</svg>
