<svg width="80" height="80" viewBox="0 0 80 80" fill="none" xmlns="http://www.w3.org/2000/svg">
<g clip-path="url(#clip0_1_1911)">
<path fill-rule="evenodd" clip-rule="evenodd" d="M40.499 32.458C44.726 32.4589 48.8264 33.9014 52.123 36.5473C55.4196 39.1931 57.7153 42.8842 58.631 47.0109H22.3669C23.2822 42.884 25.5778 39.1927 28.8745 36.5468C32.1712 33.9008 36.2718 32.4585 40.499 32.458ZM40.499 52.5L45.6921 60.3475L54.7789 62.8759L48.9211 70.2401L49.3245 79.6634L40.5128 76.3686L31.6757 79.6634L32.0849 70.2633L26.219 62.8759L35.285 60.366L40.4978 52.5046L40.499 52.5ZM67.2474 55.5682L70.0682 59.8307L75.0024 61.203L71.822 65.2031L72.0393 70.3199L67.2531 68.5303L62.4531 70.3234L62.6762 65.2181L59.4912 61.2065L64.4149 59.8411L67.2462 55.5717L67.2474 55.5682ZM13.7517 55.5682L16.5679 59.8342L21.5044 61.2065L18.3229 65.2065L18.5414 70.3234L13.7552 68.5338L8.9551 70.3234L9.18632 65.2181L5.99899 61.2065L10.9228 59.8411L13.754 55.5717L13.7517 55.5682ZM40.499 12.2843C41.9945 12.2836 43.4567 12.7265 44.7006 13.5569C45.9444 14.3874 46.9141 15.568 47.4868 16.9496C48.0596 18.3311 48.2097 19.8515 47.9183 21.3185C47.6269 22.7854 46.9069 24.1329 45.8495 25.1906C44.7922 26.2483 43.4449 26.9687 41.978 27.2605C40.5112 27.5524 38.9908 27.4027 37.609 26.8304C36.2273 26.2581 35.0463 25.2888 34.2155 24.0452C33.3847 22.8016 32.9414 21.3395 32.9416 19.844C32.9416 17.8394 33.7378 15.9169 35.155 14.4993C36.5722 13.0817 38.4944 12.2849 40.499 12.2843ZM10.7158 52.4757C7.82159 47.2947 6.32903 41.4484 6.38559 35.5141C6.44216 29.5798 8.04588 23.7629 11.0384 18.6381C14.0308 13.5132 18.3085 9.2577 23.4488 6.29189C28.5891 3.32608 34.4143 1.75258 40.3488 1.72684C46.2833 1.7011 52.1218 3.224 57.2877 6.14511C62.4535 9.06622 66.768 13.2845 69.8048 18.3832C72.8416 23.4819 74.4957 29.2846 74.6037 35.2182C74.7118 41.1517 73.27 47.0109 70.4208 52.2167C70.3453 52.3542 70.2976 52.5052 70.2804 52.6611C70.2632 52.817 70.2769 52.9748 70.3207 53.1254C70.3645 53.276 70.4376 53.4165 70.5357 53.5389C70.6338 53.6613 70.755 53.7632 70.8925 53.8387C71.03 53.9143 71.181 53.962 71.3369 53.9791C71.4928 53.9963 71.6506 53.9826 71.8012 53.9388C71.9518 53.895 72.0923 53.822 72.2147 53.7239C72.3371 53.6258 72.439 53.5045 72.5145 53.367C75.5643 47.7974 77.1084 41.5284 76.9941 35.1795C76.8798 28.8305 75.1111 22.6212 71.8628 17.1649C68.6144 11.7086 63.9988 7.1942 58.4719 4.06758C52.945 0.940951 46.698 -0.689689 40.3481 -0.663258C33.9981 -0.636827 27.7649 1.04576 22.2642 4.21829C16.7635 7.39081 12.1857 11.9435 8.98287 17.4266C5.78007 22.9097 4.06315 29.1336 4.00171 35.4833C3.94027 41.833 5.53645 48.0889 8.63256 53.6329C8.70357 53.7783 8.80345 53.9078 8.9261 54.0133C9.04876 54.1189 9.19163 54.1984 9.346 54.2469C9.50037 54.2955 9.663 54.3121 9.824 54.2957C9.98499 54.2794 10.141 54.2304 10.2824 54.1518C10.4239 54.0732 10.5479 53.9667 10.6468 53.8386C10.7457 53.7105 10.8176 53.5637 10.8579 53.407C10.8982 53.2502 10.9062 53.087 10.8814 52.9271C10.8566 52.7671 10.7995 52.614 10.7135 52.4768L10.7158 52.4757Z" fill="white"/>
</g>
<defs>
<clipPath id="clip0_1_1911">
<rect width="80" height="80" fill="white"/>
</clipPath>
</defs>
</svg>
