<svg width="70" height="70" viewBox="0 0 70 70" fill="none" xmlns="http://www.w3.org/2000/svg">
<g clip-path="url(#clip0_1_2076)">
<path d="M55 0H15C6.71573 0 0 6.71573 0 15V55C0 63.2843 6.71573 70 15 70H55C63.2843 70 70 63.2843 70 55V15C70 6.71573 63.2843 0 55 0Z" fill="#EFF3FA"/>
<path fill-rule="evenodd" clip-rule="evenodd" d="M24.4352 54.2644C24.7506 54.4524 24.8529 54.8617 24.6649 55.175C24.477 55.4903 24.0676 55.5927 23.7543 55.4047C17.1353 51.4533 13 44.3359 13 36.498C13 24.3492 22.8501 14.5 35 14.5C47.1499 14.5 57 24.3492 57 36.498C57 43.434 53.7605 49.8326 48.3738 53.9617C48.3424 53.9847 48.3299 54.0243 48.3445 54.0619C48.3571 54.0995 48.3905 54.1225 48.4302 54.1204L49.9549 54.0912C50.3225 54.0849 50.6254 54.3752 50.6316 54.7428C50.6379 55.1104 50.3476 55.4132 49.9799 55.4195L45.9656 55.4988H45.9635C45.458 55.526 45.1489 55.0811 45.2596 54.6634L46.3206 50.7392C46.4146 50.3842 46.7801 50.1733 47.1352 50.2672C47.4903 50.3612 47.7012 50.7267 47.6072 51.0817L47.0663 53.0804C47.0558 53.118 47.0705 53.1556 47.1018 53.1765C47.1331 53.1973 47.1728 53.1973 47.2041 53.1744C52.4759 49.3107 55.6651 43.1792 55.6651 36.4961C55.6651 25.0825 46.4122 15.831 34.9981 15.831C23.584 15.831 14.3311 25.083 14.3311 36.4961C14.3311 43.8598 18.2112 50.5556 24.4352 54.2644ZM36.0605 35.4347C35.1165 34.4907 33.4956 35.1632 33.4956 36.4977C33.4956 37.8323 35.1164 38.5027 36.0605 37.5608C36.6454 36.9718 36.6454 36.0216 36.0605 35.4347ZM35.7368 26.2452C35.7368 25.838 35.4068 25.5059 34.9974 25.5059C34.5901 25.5059 34.258 25.8359 34.258 26.2452V33.3731C34.258 33.4149 34.2309 33.4483 34.1912 33.4587C32.8335 33.818 31.854 35.0523 31.854 36.4954C31.854 38.8533 34.352 40.3486 36.4177 39.296C36.4532 39.2772 36.4971 39.2856 36.5242 39.3169L40.5073 43.78C40.7788 44.0849 41.2446 44.112 41.5495 43.8405C41.8544 43.569 41.8816 43.1033 41.6101 42.7984L37.6249 38.3332C37.5978 38.3019 37.5957 38.2601 37.6166 38.2246C38.803 36.4348 37.8651 34.0018 35.7995 33.4567C35.7598 33.4462 35.7326 33.4107 35.7326 33.371L35.7368 26.2452ZM23.9858 25.485C21.3499 28.1206 19.656 31.696 19.4472 35.6641C19.4451 35.6892 19.4534 35.7122 19.4722 35.731C19.4889 35.7498 19.5119 35.7581 19.537 35.7581H21.0512C21.4585 35.7581 21.7906 36.0881 21.7906 36.4974C21.7906 36.9047 21.4606 37.2367 21.0512 37.2367H19.537C19.5119 37.2367 19.4889 37.2451 19.4722 37.2639C19.4555 37.2827 19.4472 37.3036 19.4472 37.3286C19.8649 45.267 26.2292 51.6283 34.1657 52.0458C34.1907 52.0479 34.2137 52.0396 34.2304 52.0208C34.2492 52.004 34.2576 51.9811 34.2576 51.956V50.4419C34.2576 50.0346 34.5876 49.7026 34.997 49.7026C35.4042 49.7026 35.7363 50.0326 35.7363 50.4419V51.956C35.7363 51.9811 35.7468 52.0041 35.7635 52.0208C35.7823 52.0375 35.8032 52.0458 35.8282 52.0458C43.7674 51.6281 50.1292 45.2644 50.5468 37.3286C50.5489 37.3036 50.5405 37.2806 50.5217 37.2639C50.505 37.2451 50.482 37.2367 50.457 37.2367H48.9427C48.5354 37.2367 48.2033 36.9067 48.2033 36.4974C48.2033 36.0902 48.5333 35.7581 48.9427 35.7581H50.457C50.482 35.7581 50.505 35.7498 50.5217 35.731C50.5384 35.7122 50.5468 35.6913 50.5468 35.6662C50.129 27.7278 43.7647 21.3666 35.8282 20.9469C35.8032 20.9448 35.7802 20.9531 35.7635 20.9719C35.7447 20.9886 35.7363 21.0116 35.7363 21.0367V22.5508C35.7363 22.958 35.4063 23.2901 34.997 23.2901C34.5897 23.2901 34.2576 22.9601 34.2576 22.5508V21.0367C34.2576 21.0116 34.2492 20.9886 34.2304 20.9719C34.2116 20.9552 34.1907 20.9469 34.1636 20.9469C30.1951 21.1557 26.6197 22.8494 23.9858 25.485Z" fill="#008CF0"/>
</g>
<defs>
<clipPath id="clip0_1_2076">
<rect width="70" height="70" fill="white"/>
</clipPath>
</defs>
</svg>
