<svg width="29" height="28" viewBox="0 0 29 28" fill="none" xmlns="http://www.w3.org/2000/svg">
<path d="M7.74955 11.5067C8.69533 13.2127 9.78537 14.8501 11.2006 16.3432C12.6204 17.8454 14.386 19.2126 16.6714 20.3805C16.8409 20.4629 17.0012 20.4629 17.1455 20.4057C17.363 20.3232 17.5852 20.1423 17.8027 19.9248C17.9722 19.7553 18.1829 19.4851 18.4027 19.1897C19.2821 18.0332 20.3698 16.5974 21.9064 17.3164C21.9408 17.3325 21.966 17.3508 22.0003 17.3645L27.1254 20.3118C27.1414 20.3209 27.1597 20.337 27.1735 20.3461C27.849 20.811 28.1284 21.5278 28.1353 22.3407C28.1353 23.1674 27.8307 24.0972 27.3841 24.8826C26.7933 25.92 25.9231 26.607 24.9201 27.0604C23.9651 27.5001 22.9026 27.736 21.8812 27.8871C20.2782 28.123 18.776 27.9719 17.2394 27.5001C15.7371 27.0352 14.2234 26.2681 12.57 25.2467L12.4487 25.1689C11.6907 24.6949 10.8708 24.1888 10.067 23.5911C7.12667 21.3698 4.12904 18.1614 2.17566 14.6302C0.538297 11.667 -0.354809 8.46782 0.132964 5.41981C0.403186 3.7481 1.11996 2.22753 2.37031 1.2245C3.46035 0.345138 4.92825 -0.135765 6.82897 0.0336958C7.04652 0.0497259 7.24117 0.175677 7.34422 0.363458L10.6304 5.91903C11.1113 6.54192 11.1708 7.16022 10.9075 7.77852C10.6899 8.28462 10.2502 8.75178 9.65026 9.18688C9.47393 9.33802 9.26325 9.49145 9.04112 9.65176C8.30602 10.1853 7.47017 10.8013 7.75642 11.525L7.74955 11.5067Z" fill="#041F39"/>
</svg>
