<svg width="80" height="80" viewBox="0 0 80 80" fill="none" xmlns="http://www.w3.org/2000/svg">
<rect width="80" height="80" fill="#008CF0"/>
<g clip-path="url(#clip0_1_1990)">
<g clip-path="url(#clip1_1_1990)">
<g clip-path="url(#clip2_1_1990)">
<mask id="mask0_1_1990" style="mask-type:luminance" maskUnits="userSpaceOnUse" x="19" y="17" width="42" height="51">
<path d="M61 17.2H19V67.2H61V17.2Z" fill="white"/>
</mask>
<g mask="url(#mask0_1_1990)">
<path d="M25.1082 17.4708C24.6728 17.9045 24.7717 18.1567 25.7217 19.1452C26.4936 19.9623 26.6123 20.043 26.9488 20.043C27.2357 20.043 27.3644 19.9824 27.5326 19.7706C27.8789 19.3167 27.7404 18.9939 26.8003 18.0457C25.8701 17.1076 25.5535 17.0068 25.1082 17.4708Z" fill="white"/>
<path d="M38.6061 17.3196C32.1244 17.8946 27.038 22.5245 25.6427 29.1113C25.3459 30.5235 25.2766 32.9646 25.5042 34.407C25.7318 35.9302 26.1672 37.3423 26.7906 38.6537C27.4932 40.1163 28.0969 41.0241 29.3635 42.4867C29.9474 43.1525 30.7291 44.1713 31.1051 44.7362C32.7379 47.2075 33.7671 50.2134 33.9353 52.9571L33.9947 54.0465L33.6978 54.3693C33.114 54.9947 33.0249 55.2771 33.0249 56.6086C33.0249 57.7484 33.0447 57.8493 33.2921 58.2831C33.4405 58.5453 33.7077 58.8479 33.8858 58.9589L34.2124 59.1707L34.1728 60.4215C34.1332 61.864 34.2718 62.328 34.8754 62.8727C35.1822 63.145 35.2316 63.256 35.2811 63.8208C35.4197 65.1221 36.2212 66.272 37.4186 66.8772L38.0717 67.2H40.0508H42.03L42.693 66.8671C43.9398 66.2417 44.8403 64.8295 44.8502 63.4577C44.8502 63.2459 44.9492 63.0542 45.1966 62.8121C45.7507 62.2674 45.8695 61.8034 45.82 60.4215L45.7804 59.2312L46.1763 58.9286C46.8788 58.3839 47.0273 58.0006 47.0273 56.6288C47.0273 55.3477 46.9481 55.0149 46.483 54.4601C46.2158 54.1373 46.2158 54.1171 46.2851 53.1992C46.5622 49.4468 48.0465 45.8861 50.6194 42.7894C52.5985 40.4088 53.7761 38.0283 54.3699 35.2442C54.6964 33.7211 54.6964 30.816 54.3699 29.3433C53.7069 26.3072 52.3808 23.8056 50.3423 21.7075C47.2054 18.4897 43.0294 16.9363 38.6061 17.3196ZM42.4753 18.984C44.2367 19.3572 46.2059 20.2449 47.5715 21.2737C49.7981 22.9583 51.6189 25.5204 52.4006 28.0623C52.8756 29.6258 53.0043 30.4731 53.0043 32.198C53.0043 33.9834 52.8558 34.9618 52.3709 36.485C51.7574 38.4015 50.9855 39.7229 49.422 41.5789C47.1757 44.2419 45.7606 47.1268 45.0976 50.3748C44.9591 51.0204 44.8304 51.898 44.8008 52.3216C44.7711 52.7352 44.7216 53.2294 44.6919 53.4009L44.6424 53.7338H43.6133H42.5742V50.4152V47.0965L44.1081 44.3629C45.7903 41.3772 45.8794 41.125 45.3846 40.7316C45.2362 40.6106 45.0383 40.5198 44.9393 40.5198C44.8403 40.5198 44.395 40.8426 43.9398 41.2259C41.2185 43.5761 38.4378 43.5963 35.9639 41.2864C35.6572 40.9939 35.3207 40.7316 35.2217 40.6912C35.004 40.6106 34.5686 40.7719 34.4004 41.0039C34.1134 41.3772 34.252 41.7302 35.7957 44.5042L37.3295 47.2579V50.4959V53.7338H36.4488H35.5681L35.4988 52.8966C35.3306 50.8388 34.6577 48.2969 33.777 46.4207C32.9457 44.6353 32.0749 43.3341 30.6994 41.7806C29.5614 40.4996 28.839 39.4606 28.275 38.2603C27.2755 36.1622 26.9193 34.6289 26.9094 32.3493C26.9094 29.9082 27.3547 27.9513 28.3838 25.8936C30.3927 21.8991 34.0145 19.4076 38.7149 18.7923C39.3878 18.7116 41.743 18.8226 42.4753 18.984ZM40.0014 44.4941C41.1196 44.4941 41.4263 44.4537 41.9112 44.2721C42.218 44.1612 42.4753 44.0805 42.4753 44.1007C42.4753 44.1208 42.1388 44.7261 41.7331 45.4523L40.9909 46.7636V50.2538V53.7338H39.9024H38.8139V50.2033V46.6729L38.329 45.7953C38.0717 45.301 37.755 44.716 37.6462 44.4941L37.4384 44.0704L38.0519 44.2822C38.5566 44.4537 38.9128 44.4941 40.0014 44.4941ZM45.2856 55.5596C45.5231 55.7512 45.5429 55.8218 45.5429 56.5783C45.5429 57.8897 46.0872 57.7686 40.0706 57.7686C35.4197 57.7686 34.9051 57.7484 34.7369 57.5971C34.5884 57.466 34.5587 57.2844 34.5587 56.5985C34.5587 55.2368 34.064 55.3477 40.0113 55.3477C44.9294 55.3477 45.0284 55.3477 45.2856 55.5596ZM44.0982 59.6448C44.2169 59.7658 44.2565 60.018 44.2565 60.6939C44.2565 61.5008 44.2367 61.6017 44.0388 61.7429C43.7023 61.985 36.3004 61.985 35.9639 61.7429C35.766 61.6017 35.7462 61.5008 35.7462 60.6939C35.7462 60.018 35.7858 59.7658 35.9045 59.6448C36.0332 59.5036 36.5478 59.4834 40.0014 59.4834C43.4549 59.4834 43.9695 59.5036 44.0982 59.6448ZM43.2471 63.8713C43.1383 64.8497 42.3565 65.576 41.2284 65.7576C40.3477 65.8988 38.6753 65.7979 38.141 65.5861C37.4483 65.3036 36.8347 64.4261 36.8347 63.72V63.4174H40.0607H43.2966L43.2471 63.8713Z" fill="white"/>
<path d="M38.873 24.3904C37.3887 24.5518 35.7163 25.1066 34.4992 25.8531C33.7273 26.3271 32.5398 27.2551 32.233 27.6283C31.8966 28.0419 31.8966 28.5362 32.2429 28.8085C32.6586 29.1414 32.9159 29.0809 33.5492 28.4857C34.9741 27.1442 36.4981 26.3776 38.4079 26.0447C41.2678 25.5303 44.0782 26.3271 46.4135 28.3143C46.8786 28.7077 47.3338 29.0204 47.4526 29.0204C47.7594 29.0204 48.3135 28.6572 48.3234 28.4454C48.3531 27.9915 48.2739 27.82 47.7396 27.3156C46.0771 25.7219 43.712 24.6426 41.2876 24.3803C40.2287 24.2694 39.9814 24.2694 38.873 24.3904Z" fill="white"/>
<path d="M38.7643 28.6573C37.557 28.8994 36.6763 29.3029 35.667 30.0796C34.9941 30.6041 34.7071 31.0277 34.8159 31.3707C35.0336 32.097 35.6373 32.1474 36.3696 31.5018C37.3294 30.6343 38.6752 30.13 40.0013 30.13C41.3372 30.13 42.495 30.5536 43.5835 31.4514C44.2267 31.9759 44.5533 32.0566 44.9194 31.7944C45.2064 31.5926 45.2856 31.1992 45.1074 30.8462C44.771 30.2006 42.9898 29.1011 41.733 28.7682C40.8721 28.5463 39.5856 28.4959 38.7643 28.6573Z" fill="white"/>
<path d="M39.2294 32.793C38.7346 32.9645 38.0518 33.4184 37.9133 33.6706C37.6461 34.1749 38.0023 34.8709 38.5268 34.8709C38.6554 34.8709 38.9622 34.7297 39.1997 34.5683C39.5163 34.3464 39.7538 34.2657 40.0507 34.2657C40.3476 34.2657 40.5851 34.3464 40.9017 34.5683C41.4163 34.9214 41.6637 34.9415 42.02 34.6591C42.584 34.2153 42.2179 33.4386 41.2184 32.9443C40.6741 32.6719 39.7835 32.6114 39.2294 32.793Z" fill="white"/>
<path d="M39.3681 36.7977C39.0515 37.0499 39.002 37.6652 39.2889 37.9274C39.7343 38.3309 40.4863 38.2099 40.6941 37.6954C41.0207 36.8885 40.0608 36.2429 39.3681 36.7977Z" fill="white"/>
<path d="M53.1429 18.1062C52.1929 19.0745 52.1039 19.2964 52.4799 19.7806C52.6382 19.9824 52.7669 20.0429 53.0538 20.0429C53.3903 20.0429 53.509 19.9622 54.2809 19.1451C54.934 18.4794 55.1418 18.1869 55.1418 17.9851C55.1418 17.6018 54.7361 17.2185 54.3403 17.2185C54.0632 17.2185 53.8851 17.3597 53.1429 18.1062Z" fill="white"/>
<path d="M19.2203 32.0263C18.9432 32.2482 18.9234 32.8736 19.1807 33.1661C19.3292 33.3376 19.4875 33.3578 20.6156 33.3578C21.8625 33.3578 21.8822 33.3578 22.0802 33.0955C22.3572 32.7424 22.3374 32.3995 22.0406 32.0969C21.813 31.8548 21.7437 31.8447 20.6255 31.8447C19.6359 31.8447 19.4083 31.875 19.2203 32.0263Z" fill="white"/>
<path d="M57.9617 32.0969C57.6648 32.3995 57.645 32.7424 57.9221 33.0955C58.12 33.3578 58.1398 33.3578 59.3866 33.3578C60.8314 33.3578 60.9996 33.2771 60.9996 32.5911C60.9996 31.9456 60.772 31.8447 59.3768 31.8447C58.2585 31.8447 58.1893 31.8548 57.9617 32.0969Z" fill="white"/>
<path d="M25.7912 45.9868C24.8511 46.935 24.7126 47.2578 25.0589 47.7117C25.2173 47.9135 25.3558 47.9841 25.6329 47.9841C25.9495 47.9841 26.0881 47.8832 26.8599 47.0964C27.8297 46.1079 27.9188 45.8456 27.4834 45.4119C27.0381 44.9479 26.7214 45.0488 25.7912 45.9868Z" fill="white"/>
<path d="M52.5194 45.4119C52.084 45.8456 52.173 46.1079 53.1428 47.0964C53.9147 47.8832 54.0532 47.9841 54.3699 47.9841C54.647 47.9841 54.7855 47.9135 54.9438 47.7117C55.2902 47.2578 55.1516 46.935 54.2116 45.9868C53.2814 45.0488 52.9647 44.9479 52.5194 45.4119Z" fill="white"/>
</g>
</g>
</g>
</g>
<defs>
<clipPath id="clip0_1_1990">
<rect width="42" height="50" fill="white" transform="translate(19 17.2)"/>
</clipPath>
<clipPath id="clip1_1_1990">
<rect width="42" height="50" fill="white" transform="translate(19 17.2)"/>
</clipPath>
<clipPath id="clip2_1_1990">
<rect width="42" height="50" fill="white" transform="translate(19 17.2)"/>
</clipPath>
</defs>
</svg>
