<svg width="69" height="80" viewBox="0 0 69 80" fill="none" xmlns="http://www.w3.org/2000/svg">
<path fill-rule="evenodd" clip-rule="evenodd" d="M34.5 20.3625C37.4573 20.3625 40.3481 21.2351 42.807 22.8701C45.2659 24.505 47.1823 26.8289 48.314 29.5477C49.4457 32.2665 49.7419 35.2583 49.1649 38.1446C48.588 41.0309 47.1639 43.6821 45.0728 45.763C42.9817 47.8439 40.3175 49.261 37.417 49.8352C34.5166 50.4093 31.5102 50.1146 28.778 48.9884C26.0459 47.8623 23.7107 45.9551 22.0677 43.5083C20.4247 41.0614 19.5478 38.1846 19.5478 35.2418C19.5478 31.2955 21.1231 27.5109 23.9272 24.7205C26.7313 21.9301 30.5344 20.3625 34.5 20.3625ZM63.1805 8.43731C45.2312 -2.81244 23.768 -2.81244 5.81946 8.43731L0.00321099 12.0802V39.6027C-0.0685593 44.4812 1.06379 49.3027 3.30091 53.6442C5.53804 57.9858 8.81159 61.7147 12.8344 64.5038L34.5 80L56.1648 64.5038C60.1878 61.7148 63.4615 57.986 65.6988 53.6444C67.9361 49.3029 69.0685 44.4813 68.9968 39.6027V12.0802L63.1805 8.4348V8.43731ZM8.03961 16.493V39.6027C7.96606 43.2127 8.79401 46.7844 10.4492 49.9976C12.1044 53.2107 14.5351 55.9648 17.5234 58.0129L34.5 70.1546L51.4758 58.0129C54.4642 55.9649 56.8951 53.2108 58.5504 49.9977C60.2058 46.7845 61.0338 43.2128 60.9604 39.6027V16.493L58.9015 15.2024C51.6193 10.5459 43.1559 8.0476 34.5 7.99929C25.8453 8.04824 17.3831 10.5465 10.1018 15.2024L8.03961 16.493ZM5.08949 39.6027C5.02094 43.6769 5.96286 47.7051 7.83186 51.3307C9.70085 54.9563 12.4393 58.0674 15.8047 60.3886L33.6407 73.1455C33.8955 73.3279 34.2023 73.4244 34.5162 73.4209C34.8301 73.4175 35.1346 73.3142 35.3854 73.1263L53.1936 60.3894C56.5594 58.0682 59.2981 54.957 61.1674 51.3313C63.0367 47.7056 63.9789 43.6772 63.9105 39.6027V15.6872C63.9104 15.4193 63.8367 15.1565 63.6974 14.9273C63.5581 14.698 63.3584 14.511 63.1201 14.3865L60.4673 12.723C52.7177 7.76809 43.7112 5.10975 34.5 5.05854C25.2893 5.10889 16.2831 7.76637 8.53354 12.7205L5.78166 14.445C5.57117 14.5771 5.3977 14.76 5.2774 14.9768C5.15711 15.1935 5.09391 15.4371 5.09369 15.6847L5.08949 39.6002V39.6027ZM34.5 14.8387C30.4437 14.8387 26.4786 16.0357 23.106 18.2784C19.7334 20.521 17.1048 23.7085 15.5527 27.4377C14.0006 31.167 13.5947 35.2706 14.3862 39.2294C15.1778 43.1883 17.1314 46.8246 19.9998 49.6786C22.8682 52.5326 26.5227 54.476 30.5011 55.2631C34.4795 56.0502 38.6031 55.6455 42.3504 54.1004C46.0977 52.5552 49.3004 49.939 51.5535 46.5824C53.8065 43.2259 55.0087 39.2799 55.0081 35.2434C55.0074 29.8314 52.8464 24.6413 49.0004 20.8147C45.1545 16.9881 39.9386 14.8385 34.5 14.8387ZM38.942 29.336C38.2287 28.3614 37.1678 27.6954 35.9767 27.4744V26.7798C35.9767 26.3901 35.8212 26.0163 35.5442 25.7407C35.2673 25.4651 34.8917 25.3103 34.5 25.3103C34.1083 25.3103 33.7327 25.4651 33.4558 25.7407C33.1788 26.0163 33.0233 26.3901 33.0233 26.7798V27.5321C31.9129 27.8045 30.9411 28.472 30.2913 29.4085C29.6416 30.345 29.3588 31.4859 29.4964 32.6157C29.634 33.7455 30.1824 34.786 31.0381 35.541C31.8938 36.296 32.9977 36.7132 34.1413 36.7138H34.8578C35.0879 36.7088 35.3167 36.7495 35.5307 36.8336C35.7447 36.9177 35.9397 37.0436 36.1042 37.2037C36.2687 37.3638 36.3994 37.555 36.4886 37.7661C36.5779 37.9772 36.6238 38.2039 36.6238 38.4329C36.6238 38.6619 36.5779 38.8886 36.4886 39.0996C36.3994 39.3107 36.2687 39.5019 36.1042 39.6621C35.9397 39.8222 35.7447 39.948 35.5307 40.0321C35.3167 40.1162 35.0879 40.157 34.8578 40.1519H33.8498C33.5748 40.1547 33.3032 40.0907 33.0586 39.9654C32.814 39.8401 32.6038 39.6574 32.4462 39.433C32.2167 39.1179 31.8708 38.9064 31.4846 38.845C31.0984 38.7836 30.7036 38.8774 30.3869 39.1058C30.0702 39.3341 29.8576 39.6783 29.796 40.0626C29.7343 40.4469 29.8285 40.8399 30.058 41.155C30.7717 42.1294 31.8329 42.7952 33.0241 43.0158V43.7104C33.0241 44.1002 33.1797 44.4739 33.4566 44.7495C33.7336 45.0251 34.1092 45.18 34.5008 45.18C34.8925 45.18 35.2681 45.0251 35.5451 44.7495C35.822 44.4739 35.9776 44.1002 35.9776 43.7104V42.9581C37.088 42.6857 38.0599 42.0182 38.7096 41.0815C39.3594 40.1449 39.6421 39.004 39.5044 37.8741C39.3667 36.7443 38.8182 35.7037 37.9623 34.9488C37.1064 34.1938 36.0024 33.7768 34.8587 33.7764H34.1422C33.6839 33.7764 33.2444 33.5952 32.9203 33.2728C32.5963 32.9503 32.4142 32.513 32.4142 32.0569C32.4142 31.6009 32.5963 31.1635 32.9203 30.8411C33.2444 30.5186 33.6839 30.3375 34.1422 30.3375H35.1502C35.4253 30.3347 35.697 30.3988 35.9416 30.5243C36.1862 30.6497 36.3964 30.8326 36.5538 31.0572C36.7833 31.3722 37.1291 31.5836 37.5152 31.6449C37.9014 31.7062 38.2961 31.6124 38.6127 31.384C38.9293 31.1557 39.1417 30.8115 39.2033 30.4273C39.2649 30.0431 39.1706 29.6502 38.9411 29.3352L38.942 29.336Z" fill="white"/>
</svg>
