<svg width="80" height="80" viewBox="0 0 80 80" fill="none" xmlns="http://www.w3.org/2000/svg">
<rect width="80" height="80" fill="#008CF0"/>
<g clip-path="url(#clip0_1_2009)">
<g clip-path="url(#clip1_1_2009)">
<g clip-path="url(#clip2_1_2009)">
<mask id="mask0_1_2009" style="mask-type:luminance" maskUnits="userSpaceOnUse" x="15" y="17" width="50" height="51">
<path d="M65 17.2H15V67.2H65V17.2Z" fill="white"/>
</mask>
<g mask="url(#mask0_1_2009)">
<path d="M22.2965 17.2752C21.2904 17.5097 20.2843 18.3598 19.8155 19.3662L19.542 19.9524V35.2439V50.5354L19.8155 51.1216C20.1769 51.8935 20.929 52.6459 21.6811 52.9879C22.2183 53.2321 22.4039 53.2712 23.6151 53.3005L24.9533 53.3396L24.9826 54.688C25.0119 56.0266 25.0119 56.0462 25.3049 56.4077C25.8714 57.1014 25.9887 57.1307 28.5966 57.1307H30.9213V59.9643V62.7979H28.1864H25.4417L25.2072 63.0421C24.8947 63.345 24.8947 63.7163 25.2072 64.0192L25.4417 64.2635H28.5283C31.8493 64.2635 32.0349 64.2342 32.3083 63.7456C32.406 63.5795 32.4451 62.3484 32.4646 58.4303L32.4939 53.3201H33.1777H33.8516L33.8321 58.8309L33.8028 64.3417L33.5098 64.7618C33.3242 65.0256 33.0214 65.2894 32.6893 65.4555L32.1716 65.7291H23.8202H15.4786L15.2442 65.9734C14.9316 66.2763 14.9316 66.6476 15.2442 66.9505L15.4786 67.1948H23.8202C31.9274 67.1948 32.1911 67.185 32.8065 66.9994C33.9005 66.6574 34.6819 65.905 35.141 64.7423C35.3461 64.244 35.3559 64.0192 35.3949 60.6678L35.434 57.1307H36.5964H37.7587V61.7035C37.7587 64.3319 37.7978 66.4033 37.8564 66.5987C38.0811 67.4 38.9992 67.4 39.2239 66.5987C39.2825 66.4033 39.3216 63.6479 39.3216 59.7982V53.3201H40.0053H40.689V59.7982C40.689 63.6479 40.7281 66.4033 40.7867 66.5987C41.0114 67.4 41.9295 67.4 42.1542 66.5987C42.2128 66.4033 42.2519 64.3319 42.2519 61.7035V57.1307H43.424H44.5961V60.1793C44.5961 61.8599 44.6449 63.56 44.6938 63.9411C44.8403 65.094 45.4068 66.0027 46.3348 66.589C47.3115 67.2143 47.0185 67.1948 56.1904 67.1948H64.532L64.7664 66.9505C65.079 66.6476 65.079 66.2763 64.7664 65.9734L64.532 65.7291H56.1904H47.839L47.3213 65.4555C46.9892 65.2894 46.6864 65.0256 46.5008 64.7618L46.2078 64.3417L46.1785 58.8309L46.1589 53.3201H46.8329H47.5166L47.5459 58.4205C47.5655 62.3484 47.6046 63.5795 47.7022 63.7456C48.005 64.283 47.7315 64.2635 56.4639 64.2635H64.532L64.7664 64.0192C65.079 63.7163 65.079 63.345 64.7664 63.0421L64.532 62.7979H56.8057H49.0892V59.9643V57.1307H51.414C54.0219 57.1307 54.1391 57.1014 54.7057 56.4077C54.9987 56.0462 54.9987 56.0266 55.028 54.688L55.0573 53.3396L56.3955 53.3005C57.6457 53.2712 57.7727 53.2517 58.3686 52.9683C59.1695 52.5873 59.7751 51.9815 60.1658 51.1705L60.4686 50.5354L60.4979 42.8652C60.5077 38.6442 60.4979 35.0973 60.4686 34.9801C60.4393 34.8531 60.283 34.687 60.117 34.599C59.863 34.472 59.7653 34.472 59.5309 34.5697C59.3649 34.6283 59.1988 34.7651 59.15 34.8628C59.0914 34.9703 59.0523 37.9016 59.0523 42.4841C59.0523 48.0633 59.023 50.0273 58.9351 50.3302C58.8569 50.5745 58.6323 50.9067 58.3686 51.1705C58.1048 51.4343 57.7727 51.659 57.5285 51.7372C56.9913 51.8935 23.0583 51.9131 22.4918 51.747C21.9741 51.6102 21.2025 50.8383 21.0657 50.34C20.9095 49.783 20.9192 20.695 21.0657 20.1478C21.2123 19.6202 21.9546 18.8874 22.482 18.7408C22.7751 18.6627 27.698 18.6431 40.2299 18.6529L57.5676 18.6822L57.9876 18.9753C58.222 19.1414 58.5444 19.4639 58.7104 19.6984L59.0035 20.1185L59.0328 26.0885C59.0621 32.039 59.0621 32.0586 59.2672 32.2833C59.57 32.6058 60.0486 32.5862 60.3221 32.2442C60.5272 31.9804 60.5272 31.9609 60.4979 25.9713L60.4686 19.9524L60.1658 19.3173C59.7751 18.5063 59.1695 17.9005 58.3686 17.5195L57.7337 17.2166L40.2006 17.197C30.2083 17.197 22.5114 17.2263 22.2965 17.2752ZM30.9213 54.4926V55.6651L28.7041 55.6456L26.477 55.6162L26.4477 54.4633L26.4184 53.3201H28.6748H30.9213V54.4926ZM37.7587 54.4926V55.6651H36.5866H35.4145V54.4926V53.3201H36.5866H37.7587V54.4926ZM44.5961 54.4926V55.6651H43.424H42.2519V54.4926V53.3201H43.424H44.5961V54.4926ZM53.5628 54.4633L53.5335 55.6162L51.3163 55.6456L49.0892 55.6651V54.4926V53.3201H51.3358H53.5922L53.5628 54.4633Z" fill="white"/>
<path d="M23.4001 20.2848C23.2145 20.3825 22.9313 20.6268 22.7652 20.8222L22.4722 21.1935L22.4429 30.642L22.4233 40.1002L22.6285 40.3542C22.8824 40.6864 23.3806 40.7158 23.6541 40.4129C23.8299 40.2174 23.8397 39.8755 23.8885 30.9058L23.9373 21.6136L30.218 21.5648L36.5084 21.5159L36.6939 21.2814C36.9479 20.9687 36.9284 20.6268 36.6353 20.3434L36.4009 20.0991H30.0714C24.0936 20.0991 23.7224 20.1089 23.4001 20.2848Z" fill="white"/>
<path d="M39.0773 20.3336C38.7843 20.6268 38.7647 20.9687 39.0187 21.2814L39.2043 21.5159L47.6436 21.5648L56.0731 21.6136V35.2441V48.8745H40.0052H23.9374L23.8885 45.9432C23.8592 44.331 23.8104 42.9631 23.7713 42.9045C23.7323 42.8458 23.5662 42.7383 23.4099 42.6797C23.1755 42.582 23.0778 42.582 22.8239 42.709C22.6578 42.797 22.5015 42.9631 22.4722 43.0901C22.4429 43.2073 22.4234 44.6534 22.4429 46.3047L22.4722 49.2946L22.7653 49.6659C22.9313 49.8613 23.2146 50.1056 23.4002 50.2033C23.7225 50.3792 24.3476 50.389 40.0052 50.389C55.6628 50.389 56.288 50.3792 56.6103 50.2033C56.7959 50.1056 57.0792 49.8613 57.2452 49.6659L57.5382 49.2946L57.5675 35.3613C57.5871 21.9165 57.5871 21.4084 57.4113 21.0762C57.3038 20.8906 57.0596 20.6072 56.8643 20.4411L56.4931 20.148L47.9073 20.1187L39.3117 20.0991L39.0773 20.3336Z" fill="white"/>
<path d="M27.4343 23.206C25.6761 23.8314 24.8752 25.7953 25.6956 27.4759C25.9984 28.1013 26.6626 28.7168 27.2682 28.9513L27.698 29.1174V29.987C27.698 30.7785 27.7176 30.8762 27.9422 31.0911C28.0692 31.2279 28.2938 31.3354 28.4306 31.3354C28.5673 31.3354 28.792 31.2279 28.919 31.0911C29.1436 30.8762 29.1632 30.7785 29.1632 29.987V29.1174L29.5929 28.9513C30.2181 28.7168 30.8627 28.1013 31.1851 27.4466C31.5465 26.7138 31.5758 25.5804 31.2437 24.8768C30.5893 23.4308 28.8897 22.6882 27.4343 23.206ZM29.1632 24.7107C29.6516 24.9648 30.0423 25.5804 30.0423 26.108C30.0423 26.2741 29.9446 26.6063 29.8274 26.8408C29.5734 27.3293 28.958 27.7202 28.4306 27.7202C27.9031 27.7202 27.2878 27.3293 27.0436 26.8408C26.9166 26.6063 26.8189 26.2741 26.8189 26.108C26.8189 25.5804 27.2096 24.9648 27.698 24.7107C27.9324 24.5935 28.2645 24.4958 28.4306 24.4958C28.5966 24.4958 28.9287 24.5935 29.1632 24.7107Z" fill="white"/>
<path d="M38.8431 24.447C38.2375 24.6326 37.4561 25.1993 37.1044 25.6976C36.4988 26.5477 28.2354 40.9794 28.0595 41.4972C27.6395 42.7186 28.0107 44.1745 28.9875 45.1418C29.5931 45.7476 30.2377 46.07 31.0582 46.197C31.4099 46.2557 35.2974 46.285 40.445 46.2654L49.2359 46.2361L49.7829 46.0114C51.5313 45.3079 52.5374 43.168 51.9415 41.4484C51.6583 40.6276 43.0432 25.7954 42.5646 25.3068C41.9297 24.6424 41.2166 24.359 40.1519 24.3297C39.5952 24.3102 39.1166 24.359 38.8431 24.447ZM40.9334 25.9517C41.1482 26.0494 41.4413 26.2546 41.5878 26.4109C41.7245 26.5673 43.8148 30.1043 46.2274 34.2668L50.6034 41.8392V42.5329C50.6034 43.129 50.5643 43.2853 50.3103 43.7054C50.1248 43.9986 49.8317 44.2917 49.5387 44.4774L49.0601 44.7705H40.0054H30.9508L30.4722 44.4774C29.6126 43.94 29.1633 42.8358 29.4563 41.9467C29.6126 41.4581 38.1007 26.7627 38.4231 26.4109C38.804 26.0005 39.3803 25.766 40.0054 25.766C40.318 25.766 40.6989 25.8442 40.9334 25.9517Z" fill="white"/>
<path d="M40.0737 29.6353C39.8392 29.7623 35.0628 35.9962 34.7307 36.602C34.5842 36.8853 34.6526 37.5009 34.8773 37.8429C35.141 38.2435 35.5805 38.3705 36.782 38.3705C37.368 38.3705 37.8564 38.3998 37.8564 38.4487C37.8564 38.4878 37.5731 39.1815 37.2215 39.9827C36.5378 41.5754 36.4499 42.0151 36.7527 42.6404C37.1043 43.3928 38.1983 43.725 38.9406 43.295C39.1653 43.168 40.0053 42.1421 41.4509 40.227C44.6743 35.9473 44.6352 36.0255 44.2249 35.2536C43.9221 34.6966 43.5412 34.5599 42.2812 34.5599C41.6756 34.5599 41.1774 34.5305 41.1774 34.5012C41.1774 34.4719 41.4705 33.7684 41.8221 32.9379C42.4082 31.57 42.4668 31.3843 42.4277 30.9055C42.3788 30.29 42.1054 29.8601 41.6267 29.6353C41.2165 29.4399 40.4351 29.4399 40.0737 29.6353ZM40.9821 31.0716C40.9821 31.1498 40.65 31.9706 40.2397 32.9086C39.2141 35.2438 39.2141 35.2438 39.3704 35.6151C39.5364 35.9962 39.6341 36.0255 41.3435 36.0548L42.7305 36.0743L40.5328 39.0056C38.5304 41.6731 38.0518 42.23 38.0518 41.8783C38.0518 41.8099 38.4229 40.8914 38.8722 39.8459C39.3216 38.7907 39.7025 37.8624 39.7123 37.7843C39.7611 37.4716 39.7025 37.2859 39.5169 37.1003C39.3411 36.9244 39.1946 36.9049 37.8076 36.9049H36.2936L38.5108 33.9247C39.7416 32.293 40.7965 30.9544 40.8649 30.9446C40.9235 30.9446 40.9821 31.0032 40.9821 31.0716Z" fill="white"/>
<path d="M15.2442 63.0421C15.1074 63.1692 15 63.3939 15 63.5307C15 63.6675 15.1074 63.8922 15.2442 64.0192L15.4786 64.2635H19.0047H22.5309L22.7653 64.0192C22.9021 63.8922 23.0095 63.6675 23.0095 63.5307C23.0095 63.3939 22.9021 63.1692 22.7653 63.0421L22.5309 62.7979H19.0047H15.4786L15.2442 63.0421Z" fill="white"/>
</g>
</g>
</g>
</g>
<defs>
<clipPath id="clip0_1_2009">
<rect width="50" height="50" fill="white" transform="translate(15 17.2)"/>
</clipPath>
<clipPath id="clip1_1_2009">
<rect width="50" height="50" fill="white" transform="translate(15 17.2)"/>
</clipPath>
<clipPath id="clip2_1_2009">
<rect width="50" height="50" fill="white" transform="translate(15 17.2)"/>
</clipPath>
</defs>
</svg>
