<svg width="70" height="68" viewBox="0 0 70 68" fill="none" xmlns="http://www.w3.org/2000/svg">
<rect width="70" height="68" rx="15" fill="#EFF3FA"/>
<path d="M18.3967 45.8543L22.9832 50.248C23.7954 51.0277 24.9642 49.7915 24.1665 49.0242L21.8639 46.8196C21.5949 46.5642 21.7845 46.1159 22.1504 46.1159H28.651C29.793 46.1159 29.793 44.3483 28.651 44.3483H22.1504C21.7856 44.3483 21.5949 43.9 21.8639 43.6446L24.1665 41.44C24.9642 40.6727 23.7954 39.4365 22.9832 40.2162L18.3967 44.6099C18.0514 44.9382 18.0514 45.526 18.3967 45.8543ZM35.6514 42.7603C35.4648 43.5543 35.3649 44.3801 35.3649 45.2316C35.3649 51.1785 40.2091 56 46.184 56C52.1589 56 57 51.1785 57 45.2316C57 39.2847 52.1589 34.4632 46.184 34.4632C45.3625 34.4632 44.5627 34.5565 43.7969 34.7278C43.7237 35.5978 43.5248 36.4287 43.2187 37.2084C44.1422 36.8678 45.1409 36.6852 46.184 36.6852C50.9262 36.6852 54.7706 40.5116 54.7706 45.2316C54.7706 49.9516 50.9262 53.778 46.184 53.778C41.4397 53.778 37.5942 49.9516 37.5942 45.2316C37.5942 44.1678 37.7932 43.147 38.1498 42.2074C37.3634 42.5069 36.5254 42.6957 35.6514 42.7603ZM42.6755 38.3368C42.2839 39.0262 41.7994 39.654 41.2408 40.21C40.6657 40.7855 40.0081 41.28 39.2887 41.678C38.7331 42.7418 38.4208 43.9493 38.4208 45.2316C38.4208 49.4971 41.8943 52.9583 46.184 52.9583C50.4696 52.9583 53.9471 49.4981 53.9471 45.2316C53.9471 40.9661 50.4706 37.5048 46.184 37.5048C44.9224 37.5059 43.7299 37.8054 42.6755 38.3368ZM26.2062 33.2691C26.2763 32.3991 26.4752 31.5682 26.7813 30.7886C25.8578 31.1291 24.8591 31.3117 23.816 31.3117C19.0738 31.3117 15.2294 27.4853 15.2294 22.7653C15.2294 18.0454 19.0738 14.2189 23.816 14.2189C28.5603 14.2189 32.4058 18.0454 32.4058 22.7653C32.4058 23.8291 32.2068 24.8499 31.8502 25.7896C32.6366 25.4931 33.4746 25.3013 34.3486 25.2366C34.5352 24.4426 34.6351 23.6168 34.6351 22.7653C34.6351 16.8184 29.7909 12 23.816 12C17.8411 12 13 16.8184 13 22.7653C13 28.7122 17.8411 33.5327 23.816 33.5327C24.6375 33.5327 25.4373 33.4404 26.2062 33.2691ZM27.3255 29.6601C27.7172 28.9707 28.2016 28.3429 28.7602 27.7869C29.3384 27.2114 29.9929 26.7169 30.7123 26.3189C31.2679 25.2551 31.5802 24.0477 31.5802 22.7653C31.5802 18.4998 28.1068 15.0386 23.8171 15.0386C19.5315 15.0386 16.0539 18.4988 16.0539 22.7653C16.0539 27.0339 19.5304 30.4921 23.8171 30.4921C25.0786 30.4911 26.2701 30.1915 27.3255 29.6601ZM40.6595 28.3686C39.2104 26.9262 37.2088 26.0337 35 26.0337C32.7912 26.0337 30.7896 26.9262 29.3405 28.3686C27.8944 29.8078 26.9978 31.8001 26.9978 33.9985C26.9978 36.1969 27.8944 38.1891 29.3405 39.6314C30.7896 41.0707 32.7912 41.9632 35 41.9632C37.2088 41.9632 39.2104 41.0707 40.6595 39.6314C42.1056 38.1891 43.0022 36.1969 43.0022 33.9985C43.0022 31.8001 42.1056 29.8078 40.6595 28.3686ZM51.6095 22.1426L47.023 17.7489C46.2077 16.9723 45.042 18.2085 45.8397 18.9727L48.1423 21.1773C48.4113 21.4327 48.2216 21.881 47.8558 21.881H41.3552C40.2132 21.881 40.2132 23.6486 41.3552 23.6486L47.8558 23.6517C48.2206 23.6517 48.4113 24.0969 48.1423 24.3554L45.8397 26.56C45.042 27.3253 46.2077 28.5604 47.023 27.7818L51.6095 23.388C51.9548 23.0587 51.9548 22.4709 51.6095 22.1426ZM23.816 17.6853C22.6266 17.6853 21.6629 18.6445 21.6629 19.8283C21.6629 21.0152 22.6266 21.9744 23.816 21.9744C25.0085 21.9744 25.9722 21.0152 25.9722 19.8283C25.9722 18.6445 25.0085 17.6853 23.816 17.6853ZM18.8935 25.7865C18.8935 24.7452 19.4665 23.8086 20.3869 23.1377C20.8899 22.7715 21.5001 22.4832 22.1752 22.3027C21.3712 21.7703 20.8404 20.8634 20.8404 19.8283C20.8404 18.191 22.1731 16.8646 23.8181 16.8646C25.4631 16.8646 26.7978 18.191 26.7978 19.8283C26.7978 20.8634 26.266 21.7713 25.46 22.3027C26.1382 22.4832 26.7452 22.7705 27.2513 23.1377C28.1717 23.8066 28.7448 24.7463 28.7448 25.7865C28.7417 29.6304 18.8935 29.6304 18.8935 25.7865ZM20.8744 23.7973C20.1612 24.3154 19.717 25.0212 19.717 25.7865C19.717 28.5255 27.9182 28.5255 27.9182 25.7865C27.9182 25.0212 27.4739 24.3154 26.7607 23.7973C26.0093 23.2506 24.9694 22.91 23.816 22.91C22.6647 22.91 21.6217 23.2506 20.8744 23.7973ZM46.184 40.1515C44.9915 40.1515 44.0278 41.1107 44.0278 42.2946C44.0278 43.4784 44.9915 44.4376 46.184 44.4376C47.3734 44.4376 48.3371 43.4784 48.3371 42.2946C48.3371 41.1117 47.3734 40.1515 46.184 40.1515ZM41.2583 48.2527C41.2583 47.2115 41.8314 46.2728 42.7539 45.6009C43.2568 45.2347 43.8639 44.9495 44.5421 44.7689C43.7361 44.2365 43.2043 43.3266 43.2043 42.2946C43.2043 40.6573 44.539 39.3309 46.184 39.3309C47.829 39.3309 49.1616 40.6573 49.1616 42.2946C49.1616 43.3266 48.6298 44.2375 47.8269 44.7689C48.502 44.9495 49.1122 45.2347 49.6151 45.6009C50.5355 46.2728 51.1086 47.2115 51.1086 48.2527C51.1076 52.0976 41.2583 52.0976 41.2583 48.2527ZM43.2393 46.2646C42.5261 46.7827 42.0818 47.4885 42.0818 48.2538C42.0818 50.9928 50.283 50.9928 50.283 48.2538C50.283 47.4885 49.8419 46.7827 49.1256 46.2646C48.3773 45.7178 47.3342 45.3773 46.184 45.3773C45.0296 45.3773 43.9896 45.7178 43.2393 46.2646ZM35 33.0762C35.5112 33.0762 35.9286 33.4896 35.9286 33.9985C35.9286 34.5073 35.5112 34.9228 35 34.9228C34.4888 34.9228 34.0734 34.5073 34.0734 33.9985C34.0744 33.4896 34.4888 33.0762 35 33.0762ZM39.2773 33.0762C39.7886 33.0762 40.206 33.4896 40.206 33.9985C40.206 34.5073 39.7886 34.9228 39.2773 34.9228C38.7661 34.9228 38.3508 34.5073 38.3508 33.9985C38.3508 33.4896 38.7661 33.0762 39.2773 33.0762ZM30.7227 33.0762C31.2339 33.0762 31.6492 33.4896 31.6492 33.9985C31.6492 34.5073 31.2339 34.9228 30.7227 34.9228C30.2114 34.9228 29.794 34.5073 29.794 33.9985C29.794 33.4896 30.2114 33.0762 30.7227 33.0762Z" fill="#008CF0"/>
</svg>
