<svg width="20" height="27" viewBox="0 0 20 27" fill="none" xmlns="http://www.w3.org/2000/svg">
<path fill-rule="evenodd" clip-rule="evenodd" d="M14.853 23.3528C13.6411 24.6997 12.2297 25.906 10.6449 26.8816C10.4498 27.0266 10.1853 27.0442 9.96846 26.9036C7.627 25.3941 5.6606 23.5813 4.1148 21.6104C1.98147 18.8989 0.639463 15.8931 0.179843 12.9971C-0.28845 10.0615 0.149491 7.23586 1.59122 4.93972C2.15925 4.03224 2.88553 3.20607 3.77009 2.49196C5.80369 0.850604 8.12564 -0.0173163 10.4411 0.000261819C12.6698 0.0178399 14.8704 0.859393 16.7717 2.6194C17.4395 3.23464 18.001 3.93996 18.4606 4.70461C20.0107 7.29299 20.3446 10.5933 19.6639 13.9375C18.9918 17.2422 17.3224 20.5996 14.853 23.3462V23.3528ZM9.99881 5.22097C12.7479 5.22097 14.9744 7.47975 14.9744 10.2637C14.9744 13.0498 12.7457 15.3064 9.99881 15.3064C7.24976 15.3064 5.0232 13.0498 5.0232 10.2637C5.02104 7.47756 7.24976 5.22097 9.99881 5.22097Z" fill="white"/>
</svg>
