<svg width="200" height="49" viewBox="0 0 200 49" fill="none" xmlns="http://www.w3.org/2000/svg">
<path d="M28.14 26.3134C29.6619 26.3134 30.8862 26.73 31.8129 27.5632C32.7396 28.3879 33.203 29.7142 33.203 31.5422V40.8394H29.3133V32.5115C29.3133 31.4912 29.1262 30.7218 28.7521 30.2031C28.3865 29.6845 27.8084 29.4252 27.0177 29.4252C25.8274 29.4252 25.0154 29.829 24.5818 30.6367C24.1482 31.4444 23.9314 32.6092 23.9314 34.1311V40.8394H20.0416V26.5812H23.0131L23.536 28.4049H23.7528C24.0589 27.9118 24.4373 27.5122 24.8879 27.2061C25.347 26.9 25.8529 26.6747 26.4055 26.5302C26.9667 26.3856 27.5448 26.3134 28.14 26.3134ZM47.1551 36.6053C47.1551 37.5745 46.9255 38.395 46.4664 39.0666C46.0158 39.7298 45.3399 40.2357 44.4387 40.5843C43.5374 40.9244 42.4151 41.0944 41.0718 41.0944C40.077 41.0944 39.2226 41.0307 38.5084 40.9031C37.8027 40.7756 37.0885 40.563 36.3658 40.2655V37.0516C37.1395 37.4002 37.9685 37.6893 38.8527 37.9189C39.7454 38.1399 40.5276 38.2504 41.1993 38.2504C41.956 38.2504 42.4959 38.1399 42.819 37.9189C43.1506 37.6893 43.3164 37.3917 43.3164 37.0261C43.3164 36.7881 43.2483 36.5755 43.1123 36.3885C42.9848 36.1929 42.7042 35.9761 42.2706 35.738C41.837 35.4915 41.1568 35.1726 40.2301 34.7815C39.3373 34.4074 38.6019 34.0291 38.0238 33.6465C37.4541 33.2639 37.029 32.8133 36.7484 32.2947C36.4764 31.7675 36.3403 31.1001 36.3403 30.2924C36.3403 28.9746 36.8505 27.984 37.8707 27.3209C38.8995 26.6492 40.2726 26.3134 41.99 26.3134C42.8743 26.3134 43.716 26.4026 44.5152 26.5812C45.3229 26.7597 46.1518 27.0446 47.0021 27.4357L45.8288 30.2414C45.1231 29.9353 44.4557 29.6845 43.8265 29.4889C43.2058 29.2934 42.5724 29.1956 41.9263 29.1956C41.3566 29.1956 40.9273 29.2721 40.6382 29.4252C40.3491 29.5782 40.2046 29.812 40.2046 30.1266C40.2046 30.3562 40.2768 30.5602 40.4214 30.7388C40.5744 30.9173 40.8635 31.1171 41.2886 31.3382C41.7222 31.5507 42.3556 31.827 43.1888 32.1671C43.9965 32.4987 44.698 32.8473 45.2931 33.2129C45.8883 33.57 46.3474 34.0163 46.6705 34.552C46.9936 35.0791 47.1551 35.7635 47.1551 36.6053ZM56.1972 37.9954C56.6223 37.9954 57.0346 37.9529 57.4343 37.8678C57.8424 37.7828 58.2462 37.6765 58.6458 37.549V40.444C58.2292 40.6311 57.7106 40.7841 57.0899 40.9031C56.4778 41.0307 55.8061 41.0944 55.0749 41.0944C54.2247 41.0944 53.4595 40.9584 52.7793 40.6863C52.1076 40.4057 51.5762 39.9254 51.1851 39.2452C50.8025 38.5565 50.6112 37.6 50.6112 36.3757V29.5017H48.7493V27.8565L50.8918 26.5557L52.0141 23.5459H54.501V26.5812H58.4928V29.5017H54.501V36.3757C54.501 36.9198 54.654 37.328 54.9601 37.6C55.2747 37.8636 55.6871 37.9954 56.1972 37.9954ZM67.3818 26.2879C69.2948 26.2879 70.7614 26.7045 71.7817 27.5377C72.802 28.3709 73.3121 29.6377 73.3121 31.3382V40.8394H70.5956L69.8432 38.9009H69.7412C69.3331 39.411 68.9165 39.8276 68.4913 40.1507C68.0662 40.4738 67.5774 40.7118 67.0247 40.8649C66.4721 41.0179 65.8004 41.0944 65.0097 41.0944C64.168 41.0944 63.4113 40.9329 62.7396 40.6098C62.0764 40.2867 61.5536 39.7936 61.171 39.1304C60.7884 38.4587 60.5971 37.6085 60.5971 36.5798C60.5971 35.0664 61.1285 33.9526 62.1912 33.2384C63.254 32.5157 64.8482 32.1161 66.9737 32.0396L69.4478 31.9631V31.3382C69.4478 30.59 69.2523 30.0416 68.8612 29.693C68.4701 29.3444 67.926 29.1701 67.2288 29.1701C66.5401 29.1701 65.8642 29.2679 65.201 29.4634C64.5378 29.659 63.8747 29.9055 63.2115 30.2031L61.9234 27.5759C62.6801 27.1763 63.5261 26.8618 64.4613 26.6322C65.4051 26.4026 66.3786 26.2879 67.3818 26.2879ZM69.4478 34.2332L67.943 34.2842C66.6846 34.3182 65.8089 34.5435 65.3158 34.9601C64.8312 35.3767 64.5888 35.9251 64.5888 36.6053C64.5888 37.2004 64.7631 37.6255 65.1117 37.8806C65.4603 38.1272 65.9152 38.2504 66.4763 38.2504C67.3095 38.2504 68.011 38.0039 68.5806 37.5107C69.1588 37.0176 69.4478 36.3162 69.4478 35.4065V34.2332ZM83.5912 22.1941C85.9974 22.1941 87.7531 22.7127 88.8583 23.75C89.9636 24.7787 90.5163 26.1986 90.5163 28.0096C90.5163 28.8258 90.393 29.608 90.1464 30.3562C89.8999 31.0958 89.496 31.7548 88.9349 32.3329C88.3822 32.9111 87.6425 33.3702 86.7158 33.7103C85.7891 34.0419 84.6455 34.2076 83.2852 34.2076H81.589V40.8394H77.6355V22.1941H83.5912ZM83.3872 25.4334H81.589V30.9683H82.8898C83.6295 30.9683 84.2714 30.8705 84.8156 30.675C85.3597 30.4794 85.7806 30.1734 86.0781 29.7568C86.3757 29.3401 86.5245 28.8045 86.5245 28.1498C86.5245 27.2316 86.2694 26.5514 85.7593 26.1093C85.2492 25.6587 84.4585 25.4334 83.3872 25.4334ZM97.6199 40.8394H93.7301V20.9952H97.6199V40.8394ZM114.799 26.5812V40.8394H111.814L111.291 39.0156H111.087C110.781 39.5003 110.399 39.8956 109.94 40.2017C109.48 40.5078 108.975 40.7331 108.422 40.8776C107.869 41.0222 107.295 41.0944 106.7 41.0944C105.68 41.0944 104.791 40.9159 104.035 40.5588C103.278 40.1932 102.687 39.6278 102.262 38.8626C101.845 38.0974 101.637 37.1026 101.637 35.8783V26.5812H105.527V34.9091C105.527 35.9293 105.71 36.6988 106.075 37.2174C106.441 37.7361 107.023 37.9954 107.822 37.9954C108.613 37.9954 109.234 37.8168 109.684 37.4597C110.135 37.0941 110.45 36.5628 110.628 35.8656C110.815 35.1599 110.909 34.3012 110.909 33.2894V26.5812H114.799ZM135.625 26.3134C137.24 26.3134 138.46 26.73 139.285 27.5632C140.118 28.3879 140.535 29.7142 140.535 31.5422V40.8394H136.632V32.5115C136.632 31.4912 136.458 30.7218 136.109 30.2031C135.761 29.6845 135.221 29.4252 134.49 29.4252C133.461 29.4252 132.73 29.795 132.296 30.5347C131.862 31.2659 131.646 32.3159 131.646 33.6848V40.8394H127.756V32.5115C127.756 31.8313 127.679 31.2616 127.526 30.8025C127.373 30.3434 127.139 29.9991 126.825 29.7695C126.51 29.5399 126.106 29.4252 125.613 29.4252C124.891 29.4252 124.321 29.608 123.904 29.9736C123.496 30.3306 123.203 30.862 123.024 31.5677C122.854 32.2649 122.769 33.1194 122.769 34.1311V40.8394H118.88V26.5812H121.851L122.374 28.4049H122.591C122.88 27.9118 123.241 27.5122 123.675 27.2061C124.117 26.9 124.602 26.6747 125.129 26.5302C125.656 26.3856 126.191 26.3134 126.736 26.3134C127.781 26.3134 128.666 26.4834 129.388 26.8235C130.119 27.1636 130.681 27.6907 131.072 28.4049H131.416C131.841 27.6737 132.441 27.1423 133.214 26.8107C133.996 26.4792 134.8 26.3134 135.625 26.3134ZM148.429 20.9952V25.6119C148.429 26.1476 148.412 26.679 148.378 27.2061C148.352 27.7332 148.318 28.1413 148.276 28.4304H148.429C148.803 27.8438 149.313 27.3464 149.959 26.9383C150.605 26.5217 151.443 26.3134 152.472 26.3134C154.07 26.3134 155.367 26.9383 156.361 28.1881C157.356 29.4379 157.854 31.2701 157.854 33.6848C157.854 35.3087 157.624 36.6733 157.165 37.7786C156.706 38.8753 156.064 39.7043 155.239 40.2655C154.414 40.8181 153.458 41.0944 152.37 41.0944C151.324 41.0944 150.499 40.9074 149.896 40.5333C149.292 40.1592 148.803 39.7383 148.429 39.2707H148.161L147.511 40.8394H144.539V20.9952H148.429ZM151.222 29.4252C150.542 29.4252 150.002 29.5655 149.602 29.846C149.203 30.1266 148.909 30.5475 148.722 31.1086C148.544 31.6697 148.446 32.3797 148.429 33.2384V33.6593C148.429 35.0451 148.633 36.1079 149.041 36.8476C149.449 37.5788 150.193 37.9444 151.273 37.9444C152.072 37.9444 152.706 37.5745 153.173 36.8348C153.649 36.0951 153.887 35.0281 153.887 33.6338C153.887 32.2394 153.649 31.1894 153.173 30.4837C152.697 29.778 152.047 29.4252 151.222 29.4252ZM166.947 26.3134C168.265 26.3134 169.4 26.5684 170.352 27.0786C171.304 27.5802 172.04 28.3114 172.558 29.2721C173.077 30.2329 173.336 31.4062 173.336 32.792V34.6795H164.141C164.183 35.7763 164.511 36.6393 165.123 37.2684C165.744 37.8891 166.602 38.1994 167.699 38.1994C168.609 38.1994 169.442 38.1059 170.199 37.9189C170.955 37.7318 171.733 37.4512 172.533 37.0771V40.0869C171.827 40.4355 171.087 40.6906 170.314 40.8521C169.548 41.0137 168.617 41.0944 167.521 41.0944C166.092 41.0944 164.825 40.8309 163.72 40.3037C162.623 39.7766 161.76 38.9731 161.131 37.8933C160.511 36.8136 160.2 35.4532 160.2 33.8123C160.2 32.1459 160.481 30.76 161.042 29.6547C161.612 28.5409 162.402 27.7077 163.414 27.1551C164.426 26.5939 165.603 26.3134 166.947 26.3134ZM166.972 29.0808C166.216 29.0808 165.586 29.3231 165.085 29.8078C164.592 30.2924 164.307 31.0533 164.23 32.0906H169.689C169.68 31.5125 169.574 30.9981 169.37 30.5475C169.174 30.0968 168.877 29.7397 168.477 29.4762C168.086 29.2126 167.584 29.0808 166.972 29.0808ZM184.457 26.3134C184.653 26.3134 184.878 26.3261 185.133 26.3516C185.396 26.3686 185.609 26.3941 185.771 26.4281L185.477 30.0756C185.35 30.0331 185.167 30.0033 184.929 29.9863C184.699 29.9608 184.499 29.9481 184.329 29.9481C183.828 29.9481 183.339 30.0118 182.863 30.1394C182.395 30.2669 181.974 30.4752 181.6 30.7643C181.226 31.0448 180.929 31.4189 180.707 31.8866C180.495 32.3457 180.389 32.9111 180.389 33.5827V40.8394H176.499V26.5812H179.445L180.019 28.9788H180.21C180.491 28.4942 180.839 28.0521 181.256 27.6525C181.681 27.2444 182.161 26.9213 182.697 26.6832C183.241 26.4366 183.828 26.3134 184.457 26.3134ZM198.307 36.6053C198.307 37.5745 198.077 38.395 197.618 39.0666C197.168 39.7298 196.492 40.2357 195.591 40.5843C194.689 40.9244 193.567 41.0944 192.224 41.0944C191.229 41.0944 190.374 41.0307 189.66 40.9031C188.955 40.7756 188.24 40.563 187.518 40.2655V37.0516C188.291 37.4002 189.12 37.6893 190.005 37.9189C190.897 38.1399 191.68 38.2504 192.351 38.2504C193.108 38.2504 193.648 38.1399 193.971 37.9189C194.302 37.6893 194.468 37.3917 194.468 37.0261C194.468 36.7881 194.4 36.5755 194.264 36.3885C194.137 36.1929 193.856 35.9761 193.423 35.738C192.989 35.4915 192.309 35.1726 191.382 34.7815C190.489 34.4074 189.754 34.0291 189.176 33.6465C188.606 33.2639 188.181 32.8133 187.9 32.2947C187.628 31.7675 187.492 31.1001 187.492 30.2924C187.492 28.9746 188.002 27.984 189.023 27.3209C190.051 26.6492 191.425 26.3134 193.142 26.3134C194.026 26.3134 194.868 26.4026 195.667 26.5812C196.475 26.7597 197.304 27.0446 198.154 27.4357L196.981 30.2414C196.275 29.9353 195.608 29.6845 194.978 29.4889C194.358 29.2934 193.724 29.1956 193.078 29.1956C192.509 29.1956 192.079 29.2721 191.79 29.4252C191.501 29.5782 191.356 29.812 191.356 30.1266C191.356 30.3562 191.429 30.5602 191.573 30.7388C191.726 30.9173 192.015 31.1171 192.441 31.3382C192.874 31.5507 193.508 31.827 194.341 32.1671C195.148 32.4987 195.85 32.8473 196.445 33.2129C197.04 33.57 197.499 34.0163 197.822 34.552C198.145 35.0791 198.307 35.7635 198.307 36.6053Z" fill="#041F39"/>
<path d="M13.8389 36.0158C13.5651 35.742 13.1192 35.742 12.8454 36.0158C12.5716 36.2897 12.5715 36.7355 12.8454 37.0093L14.2497 38.4137C14.3866 38.5506 14.5657 38.619 14.7465 38.619C14.9255 38.619 15.1046 38.5506 15.2433 38.4137C15.5171 38.1398 15.5171 37.6939 15.2433 37.4201L13.8389 36.0158Z" fill="#008CF0"/>
<path d="M16.8533 33.7037H15.449C15.061 33.7037 14.7468 34.018 14.7468 34.4059C14.7468 34.7938 15.061 35.108 15.449 35.108H16.8533C17.2412 35.108 17.5554 34.7938 17.5554 34.4059C17.5554 34.018 17.2412 33.7037 16.8533 33.7037Z" fill="#008CF0"/>
<path d="M13.3421 33.0017C13.5212 33.0017 13.7002 32.9333 13.8389 32.7963L15.2432 31.392C15.5171 31.1182 15.5171 30.6723 15.2432 30.3985C14.9694 30.1247 14.5235 30.1246 14.2497 30.3985L12.8454 31.8028C12.5716 32.0766 12.5716 32.5225 12.8454 32.7963C12.9823 32.9333 13.1613 33.0017 13.3421 33.0017Z" fill="#008CF0"/>
<path d="M20.3627 11.9367V0.702156C20.3627 0.314215 20.0485 0 19.6606 0H18.2563C17.8683 0 17.5541 0.314215 17.5541 0.702156V1.40431H12.6388C6.44411 1.40431 1.40431 6.44411 1.40431 12.6388V17.5541H0.702156C0.314215 17.5541 0 17.8683 0 18.2563V19.6606C0 20.0485 0.314215 20.3627 0.702156 20.3627H11.9367C12.3246 20.3627 12.6388 20.0485 12.6388 19.6606V18.2563C12.6388 17.8683 12.3246 17.5541 11.9367 17.5541H11.2345V12.6388C11.2345 11.8647 11.8647 11.2345 12.6388 11.2345H17.5541V11.9367C17.5541 12.3246 17.8683 12.6388 18.2563 12.6388H19.6606C20.0485 12.6388 20.3627 12.3246 20.3627 11.9367Z" fill="#008CF0"/>
<path d="M1.4058 44.2363C1.4058 44.6242 1.72002 44.9385 2.10796 44.9385H10.5338C10.9218 44.9385 11.236 44.6242 11.236 44.2363V37.2148C11.236 37.0287 11.1623 36.8496 11.0306 36.718L8.92414 34.6115C8.70998 34.3973 8.38349 34.3447 8.11314 34.4798L4.21441 35.8104L8.42735 32.2996L10.3126 32.9667C10.5268 33.0369 10.762 33.0018 10.9445 32.8701C11.1271 32.7385 11.2359 32.5261 11.2359 32.3014V21.7688L1.40576 21.7671L1.4058 44.2363Z" fill="#008CF0"/>
<path d="M29.491 10.5328V2.10694C29.491 1.719 29.1768 1.40479 28.7889 1.40479H21.7673V11.235H28.7889C29.1768 11.235 29.491 10.9208 29.491 10.5328Z" fill="#008CF0"/>
</svg>
