<svg width="260" height="63" viewBox="0 0 260 63" fill="none" xmlns="http://www.w3.org/2000/svg">
<path d="M36.5821 33.8074C38.5606 33.8074 40.1522 34.349 41.357 35.4321C42.5617 36.5043 43.1641 38.2285 43.1641 40.6049V52.6912H38.1074V41.8649C38.1074 40.5386 37.8643 39.5383 37.3779 38.8641C36.9027 38.1898 36.1511 37.8527 35.1232 37.8527C33.5758 37.8527 32.5202 38.3777 31.9565 39.4277C31.3928 40.4778 31.111 41.992 31.111 43.9705V52.6912H26.0543V34.1555H29.9173L30.597 36.5264H30.8789C31.2768 35.8853 31.7686 35.3658 32.3544 34.9679C32.9513 34.57 33.6089 34.2771 34.3273 34.0892C35.0568 33.9013 35.8084 33.8074 36.5821 33.8074ZM61.3018 47.1868C61.3018 48.4469 61.0034 49.5135 60.4065 50.3866C59.8207 51.2488 58.942 51.9064 57.7704 52.3596C56.5988 52.8017 55.1399 53.0227 53.3935 53.0227C52.1003 53.0227 50.9895 52.9399 50.0611 52.7741C49.1437 52.6083 48.2152 52.3319 47.2758 51.9451V47.7671C48.2816 48.2203 49.3592 48.5961 50.5087 48.8945C51.6693 49.1819 52.6861 49.3256 53.5593 49.3256C54.543 49.3256 55.2449 49.1819 55.6649 48.8945C56.0959 48.5961 56.3115 48.2092 56.3115 47.734C56.3115 47.4245 56.223 47.1482 56.0462 46.905C55.8804 46.6508 55.5157 46.3689 54.952 46.0595C54.3883 45.7389 53.504 45.3244 52.2993 44.816C51.1387 44.3297 50.1827 43.8378 49.4311 43.3405C48.6905 42.8431 48.1379 42.2573 47.7731 41.5831C47.4194 40.8978 47.2426 40.0301 47.2426 38.9801C47.2426 37.2669 47.9058 35.9793 49.2321 35.1171C50.5695 34.244 52.3545 33.8074 54.5872 33.8074C55.7367 33.8074 56.8309 33.9234 57.8699 34.1555C58.9199 34.3876 59.9976 34.7579 61.1029 35.2664L59.5776 38.9138C58.6602 38.5159 57.7925 38.1898 56.9746 37.9356C56.1678 37.6814 55.3443 37.5543 54.5043 37.5543C53.7638 37.5543 53.2056 37.6538 52.8298 37.8527C52.454 38.0517 52.2661 38.3556 52.2661 38.7646C52.2661 39.063 52.3601 39.3283 52.548 39.5604C52.7469 39.7925 53.1227 40.0522 53.6754 40.3396C54.2391 40.6159 55.0625 40.9751 56.1457 41.4173C57.1957 41.8483 58.1075 42.3015 58.8812 42.7768C59.6549 43.241 60.2518 43.8213 60.6718 44.5176C61.0918 45.2029 61.3018 46.0926 61.3018 47.1868ZM73.0565 48.994C73.6092 48.994 74.1452 48.9387 74.6647 48.8282C75.1952 48.7177 75.7203 48.5795 76.2397 48.4137V52.1772C75.6981 52.4204 75.0239 52.6193 74.2171 52.7741C73.4213 52.9399 72.5481 53.0227 71.5975 53.0227C70.4923 53.0227 69.4975 52.8459 68.6133 52.4922C67.7401 52.1275 67.0493 51.503 66.5409 50.6188C66.0435 49.7235 65.7948 48.48 65.7948 46.8884V37.9522H63.3742V35.8135L66.1595 34.1224L67.6185 30.2097H70.8515V34.1555H76.0408V37.9522H70.8515V46.8884C70.8515 47.5958 71.0504 48.1263 71.4483 48.48C71.8573 48.8227 72.3933 48.994 73.0565 48.994ZM87.5965 33.7742C90.0834 33.7742 91.99 34.3158 93.3164 35.399C94.6427 36.4822 95.3059 38.129 95.3059 40.3396V52.6912H91.7745L90.7963 50.1711H90.6637C90.1332 50.8343 89.5916 51.3759 89.0389 51.7959C88.4863 52.2159 87.8508 52.5254 87.1323 52.7243C86.4139 52.9233 85.5407 53.0227 84.5128 53.0227C83.4186 53.0227 82.4349 52.8127 81.5617 52.3927C80.6996 51.9727 80.0198 51.3317 79.5224 50.4695C79.0251 49.5964 78.7764 48.4911 78.7764 47.1537C78.7764 45.1863 79.4672 43.7384 80.8488 42.8099C82.2304 41.8704 84.3028 41.3509 87.066 41.2515L90.2824 41.152V40.3396C90.2824 39.367 90.0282 38.654 89.5197 38.2009C89.0113 37.7477 88.3039 37.5211 87.3976 37.5211C86.5023 37.5211 85.6236 37.6482 84.7615 37.9025C83.8994 38.1567 83.0372 38.4772 82.1751 38.8641L80.5006 35.4487C81.4843 34.9292 82.5841 34.5203 83.7999 34.2219C85.0268 33.9234 86.2923 33.7742 87.5965 33.7742ZM90.2824 44.1031L88.326 44.1694C86.6902 44.2136 85.5518 44.5065 84.9107 45.0481C84.2807 45.5897 83.9657 46.3026 83.9657 47.1868C83.9657 47.9605 84.1923 48.5132 84.6454 48.8448C85.0986 49.1653 85.6899 49.3256 86.4194 49.3256C87.5026 49.3256 88.4145 49.005 89.155 48.364C89.9066 47.7229 90.2824 46.811 90.2824 45.6284V44.1031ZM108.669 28.4523C111.797 28.4523 114.079 29.1265 115.516 30.4749C116.953 31.8123 117.671 33.6582 117.671 36.0124C117.671 37.0735 117.511 38.0904 117.191 39.063C116.87 40.0246 116.345 40.8812 115.616 41.6328C114.897 42.3844 113.935 42.9812 112.731 43.4234C111.526 43.8544 110.039 44.0699 108.271 44.0699H106.066V52.6912H100.926V28.4523H108.669ZM108.404 32.6634H106.066V39.8588H107.757C108.719 39.8588 109.553 39.7317 110.26 39.4775C110.968 39.2233 111.515 38.8254 111.902 38.2838C112.289 37.7422 112.482 37.0459 112.482 36.1948C112.482 35.0011 112.15 34.1169 111.487 33.5421C110.824 32.9563 109.796 32.6634 108.404 32.6634ZM126.906 52.6912H121.849V26.8938H126.906V52.6912ZM149.238 34.1555V52.6912H145.359L144.679 50.3203H144.414C144.016 50.9503 143.518 51.4643 142.922 51.8622C142.325 52.2601 141.667 52.553 140.949 52.7409C140.23 52.9288 139.484 53.0227 138.71 53.0227C137.384 53.0227 136.229 52.7906 135.245 52.3264C134.262 51.8511 133.493 51.1161 132.941 50.1214C132.399 49.1266 132.128 47.8334 132.128 46.2418V34.1555H137.185V44.9818C137.185 46.3081 137.423 47.3084 137.898 47.9826C138.373 48.6569 139.13 48.994 140.169 48.994C141.197 48.994 142.004 48.7619 142.59 48.2977C143.176 47.8224 143.585 47.1316 143.817 46.2252C144.06 45.3079 144.182 44.1915 144.182 42.8762V34.1555H149.238ZM176.312 33.8074C178.412 33.8074 179.998 34.349 181.07 35.4321C182.154 36.5043 182.695 38.2285 182.695 40.6049V52.6912H177.622V41.8649C177.622 40.5386 177.395 39.5383 176.942 38.8641C176.489 38.1898 175.787 37.8527 174.837 37.8527C173.499 37.8527 172.549 38.3335 171.985 39.2951C171.421 40.2457 171.139 41.6107 171.139 43.3902V52.6912H166.083V41.8649C166.083 40.9807 165.983 40.2401 165.784 39.6433C165.585 39.0464 165.281 38.5988 164.873 38.3004C164.464 38.0019 163.939 37.8527 163.297 37.8527C162.358 37.8527 161.617 38.0904 161.076 38.5656C160.545 39.0298 160.164 39.7206 159.932 40.638C159.711 41.5444 159.6 42.6552 159.6 43.9705V52.6912H154.544V34.1555H158.407L159.086 36.5264H159.368C159.744 35.8853 160.214 35.3658 160.777 34.9679C161.352 34.57 161.982 34.2771 162.667 34.0892C163.353 33.9013 164.049 33.8074 164.756 33.8074C166.116 33.8074 167.265 34.0284 168.205 34.4705C169.155 34.9127 169.885 35.5979 170.393 36.5264H170.841C171.394 35.5758 172.173 34.885 173.179 34.454C174.196 34.0229 175.24 33.8074 176.312 33.8074ZM192.958 26.8938V32.8955C192.958 33.5918 192.936 34.2826 192.891 34.9679C192.858 35.6532 192.814 36.1837 192.759 36.5595H192.958C193.444 35.7969 194.107 35.1503 194.947 34.6198C195.787 34.0782 196.876 33.8074 198.213 33.8074C200.291 33.8074 201.977 34.6198 203.27 36.2445C204.563 37.8693 205.21 40.2512 205.21 43.3902C205.21 45.5013 204.911 47.2753 204.315 48.7121C203.718 50.138 202.883 51.2156 201.811 51.9451C200.739 52.6635 199.496 53.0227 198.081 53.0227C196.721 53.0227 195.649 52.7796 194.864 52.2933C194.08 51.8069 193.444 51.2598 192.958 50.6519H192.61L191.764 52.6912H187.901V26.8938H192.958ZM196.589 37.8527C195.704 37.8527 195.003 38.0351 194.483 38.3998C193.964 38.7646 193.582 39.3117 193.339 40.0412C193.107 40.7707 192.98 41.6936 192.958 42.8099V43.357C192.958 45.1586 193.223 46.5403 193.754 47.5019C194.284 48.4524 195.251 48.9277 196.655 48.9277C197.694 48.9277 198.517 48.4469 199.125 47.4853C199.744 46.5237 200.054 45.1365 200.054 43.3239C200.054 41.5112 199.744 40.1462 199.125 39.2288C198.506 38.3114 197.661 37.8527 196.589 37.8527ZM217.031 33.8074C218.744 33.8074 220.22 34.139 221.458 34.8021C222.695 35.4542 223.652 36.4048 224.326 37.6538C225 38.9027 225.337 40.428 225.337 42.2296V44.6834H213.383C213.439 46.1092 213.864 47.2311 214.66 48.049C215.467 48.8558 216.583 49.2593 218.009 49.2593C219.192 49.2593 220.275 49.1377 221.259 48.8945C222.242 48.6513 223.254 48.2866 224.293 47.8003V51.713C223.375 52.1662 222.414 52.4977 221.408 52.7077C220.413 52.9177 219.203 53.0227 217.777 53.0227C215.92 53.0227 214.273 52.6801 212.836 51.9948C211.411 51.3096 210.289 50.2651 209.471 48.8614C208.664 47.4576 208.26 45.6892 208.26 43.556C208.26 41.3896 208.625 39.588 209.355 38.1511C210.095 36.7032 211.123 35.62 212.438 34.9016C213.754 34.1721 215.285 33.8074 217.031 33.8074ZM217.064 37.4051C216.08 37.4051 215.262 37.7201 214.61 38.3501C213.969 38.9801 213.599 39.9693 213.5 41.3178H220.595C220.584 40.5662 220.446 39.8975 220.181 39.3117C219.927 38.7259 219.54 38.2617 219.02 37.919C218.512 37.5764 217.86 37.4051 217.064 37.4051ZM239.794 33.8074C240.048 33.8074 240.341 33.824 240.673 33.8571C241.016 33.8792 241.292 33.9124 241.502 33.9566L241.121 38.6983C240.955 38.643 240.717 38.6043 240.408 38.5822C240.109 38.549 239.849 38.5325 239.628 38.5325C238.976 38.5325 238.341 38.6154 237.722 38.7812C237.114 38.9469 236.567 39.2177 236.08 39.5935C235.594 39.9583 235.207 40.4446 234.92 41.0525C234.644 41.6494 234.505 42.3844 234.505 43.2576V52.6912H229.449V34.1555H233.279L234.025 37.2724H234.273C234.638 36.6424 235.091 36.0677 235.633 35.5482C236.185 35.0177 236.81 34.5977 237.506 34.2882C238.214 33.9676 238.976 33.8074 239.794 33.8074ZM257.799 47.1868C257.799 48.4469 257.501 49.5135 256.904 50.3866C256.318 51.2488 255.44 51.9064 254.268 52.3596C253.096 52.8017 251.637 53.0227 249.891 53.0227C248.598 53.0227 247.487 52.9399 246.559 52.7741C245.641 52.6083 244.713 52.3319 243.773 51.9451V47.7671C244.779 48.2203 245.857 48.5961 247.006 48.8945C248.167 49.1819 249.184 49.3256 250.057 49.3256C251.04 49.3256 251.742 49.1819 252.162 48.8945C252.593 48.5961 252.809 48.2092 252.809 47.734C252.809 47.4245 252.721 47.1482 252.544 46.905C252.378 46.6508 252.013 46.3689 251.449 46.0595C250.886 45.7389 250.002 45.3244 248.797 44.816C247.636 44.3297 246.68 43.8378 245.929 43.3405C245.188 42.8431 244.635 42.2573 244.271 41.5831C243.917 40.8978 243.74 40.0301 243.74 38.9801C243.74 37.2669 244.403 35.9793 245.73 35.1171C247.067 34.244 248.852 33.8074 251.085 33.8074C252.234 33.8074 253.328 33.9234 254.367 34.1555C255.417 34.3876 256.495 34.7579 257.6 35.2664L256.075 38.9138C255.158 38.5159 254.29 38.1898 253.472 37.9356C252.665 37.6814 251.842 37.5543 251.002 37.5543C250.261 37.5543 249.703 37.6538 249.327 37.8527C248.952 38.0517 248.764 38.3556 248.764 38.7646C248.764 39.063 248.858 39.3283 249.045 39.5604C249.244 39.7925 249.62 40.0522 250.173 40.3396C250.737 40.6159 251.56 40.9751 252.643 41.4173C253.693 41.8483 254.605 42.3015 255.379 42.7768C256.152 43.241 256.749 43.8213 257.169 44.5176C257.589 45.2029 257.799 46.0926 257.799 47.1868Z" fill="white"/>
<path d="M17.9906 46.8203C17.6346 46.4643 17.0549 46.4643 16.699 46.8203C16.343 47.1763 16.343 47.756 16.699 48.1119L18.5246 49.9375C18.7026 50.1155 18.9353 50.2045 19.1704 50.2045C19.4032 50.2045 19.6359 50.1155 19.8162 49.9375C20.1722 49.5815 20.1722 49.0019 19.8162 48.6459L17.9906 46.8203Z" fill="#008CF0"/>
<path d="M21.9093 43.8152H20.0837C19.5794 43.8152 19.1709 44.2237 19.1709 44.728C19.1709 45.2323 19.5794 45.6408 20.0837 45.6408H21.9093C22.4136 45.6408 22.8221 45.2323 22.8221 44.728C22.8221 44.2237 22.4136 43.8152 21.9093 43.8152Z" fill="#008CF0"/>
<path d="M17.3448 42.9023C17.5775 42.9023 17.8103 42.8133 17.9906 42.6353L19.8162 40.8097C20.1722 40.4537 20.1722 39.874 19.8162 39.5181C19.4602 39.1621 18.8806 39.1621 18.5246 39.5181L16.699 41.3437C16.343 41.6997 16.343 42.2793 16.699 42.6353C16.877 42.8133 17.1097 42.9023 17.3448 42.9023Z" fill="#008CF0"/>
<path d="M26.4716 15.5179V0.913047C26.4716 0.408724 26.0631 0.000244141 25.5588 0.000244141H23.7332C23.2288 0.000244141 22.8204 0.408724 22.8204 0.913047V1.82585H16.4304C8.37734 1.82585 1.82561 8.37758 1.82561 16.4307V22.8206H0.912803C0.40848 22.8206 0 23.2291 0 23.7334V25.559C0 26.0633 0.40848 26.4718 0.912803 26.4718H15.5176C16.022 26.4718 16.4304 26.0633 16.4304 25.559V23.7334C16.4304 23.2291 16.022 22.8206 15.5176 22.8206H14.6048V16.4307C14.6048 15.4243 15.4241 14.6051 16.4304 14.6051H22.8204V15.5179C22.8204 16.0222 23.2288 16.4307 23.7332 16.4307H25.5588C26.0631 16.4307 26.4716 16.0222 26.4716 15.5179Z" fill="#008CF0"/>
<path d="M1.82757 57.5077C1.82757 58.012 2.23605 58.4205 2.74037 58.4205H13.694C14.1983 58.4205 14.6068 58.012 14.6068 57.5077V48.3797C14.6068 48.1378 14.511 47.905 14.3398 47.7339L11.6014 44.9955C11.323 44.717 10.8986 44.6486 10.5471 44.8243L5.47876 46.554L10.9556 41.99L13.4064 42.8572C13.6848 42.9485 13.9906 42.9028 14.2279 42.7317C14.4652 42.5605 14.6068 42.2844 14.6068 41.9923V28.3L1.82751 28.2977L1.82757 57.5077Z" fill="#008CF0"/>
<path d="M38.3383 13.6926V2.73897C38.3383 2.23465 37.9298 1.82617 37.4255 1.82617H28.2975V14.6054H37.4255C37.9298 14.6054 38.3383 14.1969 38.3383 13.6926Z" fill="#008CF0"/>
</svg>
