<svg width="80" height="80" viewBox="0 0 80 80" fill="none" xmlns="http://www.w3.org/2000/svg">
<rect width="80" height="80" fill="#008CF0"/>
<g clip-path="url(#clip0_1_1972)">
<g clip-path="url(#clip1_1_1972)">
<g clip-path="url(#clip2_1_1972)">
<mask id="mask0_1_1972" style="mask-type:luminance" maskUnits="userSpaceOnUse" x="15" y="17" width="50" height="51">
<path d="M65 17.2H15V67.2H65V17.2Z" fill="white"/>
</mask>
<g mask="url(#mask0_1_1972)">
<path d="M31.1331 17.3383C26.1855 18.1248 21.8928 21.3413 19.7566 25.8685C18.6884 28.1372 18.3055 29.7908 18.2955 32.3115C18.2854 33.2795 18.3156 34.2676 18.366 34.4995L18.4365 34.9331H17.7715C17.3987 34.9331 16.915 34.9835 16.6832 35.054C16.129 35.2154 15.2926 36.0523 15.1314 36.6068C14.9601 37.2118 14.9601 61.6931 15.1314 62.2981C15.3632 63.0846 16.4917 63.9719 17.2676 63.9719C17.3986 63.9719 17.4289 64.0828 17.4289 64.5365C17.4289 64.8491 17.4793 65.2927 17.5498 65.5246C17.711 66.0792 18.5474 66.9161 19.1016 67.0774C19.4241 67.1682 24.2205 67.1984 40.0207 67.1984C63.1465 67.1984 61.101 67.269 61.897 66.3918C62.3908 65.8372 62.5722 65.3532 62.5722 64.5365C62.5722 64.0626 62.6024 63.9719 62.7535 63.9719C62.8543 63.9719 63.1465 63.9013 63.4085 63.8105C63.9829 63.619 64.6983 62.8728 64.8696 62.2779C65.0409 61.7032 65.0409 37.2017 64.8696 36.627C64.8092 36.4052 64.5572 36.0018 64.3154 35.7397C63.5597 34.8927 63.9325 34.9331 55.8007 34.9331H48.6664L48.7369 34.3482C48.878 33.3299 48.8176 30.8192 48.6261 29.7908C47.4572 23.2772 42.167 18.1853 35.6373 17.298C34.5793 17.1468 32.1911 17.177 31.1331 17.3383ZM36.1412 19.0524C41.0183 20.0002 45.0489 23.5797 46.5906 28.3287C47.0642 29.7706 47.1952 30.7083 47.1952 32.5132C47.2053 34.3886 47.0743 35.1952 46.4899 36.9496C44.9884 41.4567 40.9578 45.016 36.3024 45.9234C35.9598 45.994 35.597 46.1251 35.4963 46.2158C35.3955 46.3167 34.932 46.9418 34.4584 47.6174C33.9848 48.2929 33.5817 48.8374 33.5515 48.8374C33.5212 48.8374 33.098 48.2526 32.5942 47.5367C32.1004 46.8208 31.5966 46.1957 31.4858 46.1352C31.3749 46.0747 30.8812 45.9335 30.3874 45.8226C25.208 44.6328 21.1975 40.4383 20.0891 35.0843C19.8372 33.8542 19.8271 31.2225 20.079 29.9723C21.2278 24.225 25.7119 19.8893 31.4858 18.9516C32.6143 18.7701 34.9723 18.8205 36.1412 19.0524ZM19.0411 37.3731L19.3132 38.1596H19.021C18.8497 38.1596 18.628 38.2604 18.4869 38.4117L18.235 38.6536V49.4525V60.2513L18.4869 60.4933L18.7288 60.7453H33.5515H48.3742L48.616 60.4933L48.8679 60.2513V49.4525V38.6536L48.616 38.4117C48.475 38.2604 48.2533 38.1596 48.082 38.1596H47.7897L48.0618 37.3731L48.344 36.5967L55.6092 36.5665L62.8845 36.5463L63.1264 36.7883L63.3783 37.0404V49.4525V61.8645L63.1264 62.1065L62.8845 62.3586H40.0005H17.1165L16.8747 62.1065L16.6228 61.8645V49.4525V37.0404L16.8747 36.7883C17.1064 36.5564 17.187 36.5362 17.9428 36.5665L18.759 36.5967L19.0411 37.3731ZM20.21 40.0451C22.0641 43.1204 24.6639 45.4092 27.707 46.6595C28.1806 46.8611 29.0371 47.1435 29.6014 47.2947L30.6494 47.577L31.8586 49.271C33.5716 51.6606 33.5313 51.6606 35.2544 49.2609L36.4636 47.5569L37.1992 47.3855C41.0082 46.478 44.5451 43.8867 46.6209 40.4887C46.8325 40.1258 47.0642 39.8233 47.1348 39.793C47.2255 39.7628 47.2557 41.9205 47.2557 49.4424V59.1321H46.4496H45.6434V58.5674C45.6434 57.7507 45.462 57.2667 44.9683 56.7122C44.2025 55.8551 44.9381 55.9055 33.5716 55.9055C25.994 55.9055 23.4446 55.9358 23.1322 56.0265C22.578 56.1879 21.7417 57.0247 21.5805 57.5793C21.5099 57.8112 21.4595 58.2548 21.4595 58.5674V59.1321H20.6534H19.8473V49.4525C19.8473 43.2212 19.8775 39.7729 19.948 39.7729C19.9984 39.7729 20.1193 39.8938 20.21 40.0451ZM43.7792 57.7709C43.9909 57.9725 44.0312 58.1137 44.0312 58.5775V59.1321H33.5515H23.0718V58.5775C23.0718 58.1137 23.1121 57.9725 23.3237 57.7709L23.5655 57.5188H33.5515H43.5374L43.7792 57.7709ZM60.9599 64.5264C60.9599 64.9902 60.9196 65.1314 60.708 65.3331L60.4661 65.5851H40.0005H19.5349L19.293 65.3331C19.0814 65.1314 19.0411 64.9902 19.0411 64.5264V63.9719H40.0005H60.9599V64.5264Z" fill="white"/>
<path d="M25.3189 24.2753C23.2532 26.3323 23.0718 26.544 23.0718 26.8667C23.0718 27.1893 23.2532 27.4011 25.3189 29.458L27.5559 31.7065H28.3721H29.1782L29.5712 32.1098L29.9642 32.5131L29.5208 32.9668L29.0774 33.4206L28.3116 33.3601C24.9259 33.0777 22.3362 36.2236 23.2733 39.5006C23.4345 40.035 23.6965 40.2769 24.1399 40.2769C24.4724 40.2769 24.6135 40.1761 25.5909 39.2182L26.6591 38.1595H27.2838H27.9086V38.7847V39.4098L26.8505 40.4786C25.8932 41.4567 25.7925 41.5978 25.7925 41.9305C25.7925 42.3742 26.0343 42.6364 26.5684 42.7977C29.8231 43.7253 33.0073 41.0836 32.705 37.6957C32.6446 37.0302 32.6546 36.9798 32.8965 36.7479L33.1585 36.5059L36.4032 39.7526C39.406 42.7573 39.6781 42.9993 40.0005 42.9993C40.3129 42.9993 40.5144 42.8279 42.1871 41.1542C43.8599 39.4804 44.0312 39.2787 44.0312 38.9662C44.0312 38.6435 43.7893 38.3713 40.7865 35.3666L37.5317 32.1098L37.7635 31.888C37.9751 31.6762 38.0859 31.6561 39.1238 31.6561C40.4439 31.646 41.0485 31.4645 41.9957 30.799C43.3762 29.8411 44.1621 28.1573 44.0009 26.5339C43.8699 25.2231 43.5979 24.7492 42.963 24.7492C42.6305 24.7492 42.4894 24.8501 41.512 25.8079L40.4439 26.8667H39.8191H39.1944V26.2314V25.6063L40.1617 24.6484C41.2399 23.5796 41.4415 23.257 41.2903 22.8133C41.1694 22.4806 40.857 22.2991 40.1214 22.1378C38.3278 21.7546 36.4737 22.4604 35.3552 23.9426C34.5994 24.9509 34.2871 26.0197 34.3979 27.27L34.4584 28.0363L34.0049 28.4799L33.5515 28.9236L33.1484 28.5303L32.7453 28.1371V27.3305V26.5137L30.4982 24.2753C28.4426 22.2083 28.231 22.0269 27.9086 22.0269C27.5861 22.0269 27.3745 22.2083 25.3189 24.2753ZM38.2069 24.2854L37.5821 24.9307V26.4633C37.5821 27.9455 37.5922 27.996 37.834 28.2279C38.0658 28.4699 38.1162 28.4799 39.5974 28.4799H41.1291L41.7639 27.8649L42.3987 27.2599L42.3181 27.6027C42.2073 28.1069 41.7135 28.9639 41.381 29.2462C41.2097 29.3874 40.8469 29.6193 40.5648 29.7605C40.0005 30.0529 39.1843 30.1134 38.0658 29.952L37.5015 29.8613L36.9271 30.4058C36.4535 30.8595 36.3024 30.9402 35.9699 30.9502C35.6272 30.9603 35.5063 30.8998 35.1436 30.5268L34.7204 30.0932L35.4559 29.337L36.2016 28.5808L36.1311 28.0464C35.9497 26.5944 35.9497 26.4633 36.121 25.939C36.4535 24.9005 37.1791 24.1644 38.1867 23.8115C38.4386 23.7208 38.6805 23.6502 38.7309 23.6401C38.7812 23.6401 38.5394 23.9325 38.2069 24.2854ZM29.541 25.6265L31.1331 27.2196V28.0161V28.8228L32.7655 30.4663L34.408 32.1098L33.7732 32.7349L33.1484 33.3701L31.5059 31.7266L29.8634 30.0932H29.0573H28.2612L26.649 28.4799L25.0367 26.8667L26.4474 25.455C27.2233 24.6787 27.8783 24.0434 27.9086 24.0434C27.9388 24.0434 28.6744 24.7593 29.541 25.6265ZM39.0432 35.9413L42.0662 38.9662L41.0283 39.9946L40.0005 41.0332L36.9574 37.9881L33.9041 34.933L34.9118 33.9247C35.466 33.3701 35.9396 32.9164 35.9699 32.9164C36.0001 32.9164 37.3806 34.2776 39.0432 35.9413ZM31.5865 34.1264C31.909 34.449 31.9896 34.6103 31.9896 34.9128C31.9997 35.2254 31.909 35.3767 31.4455 35.8707L30.9013 36.4555L30.992 37.0302C31.1532 38.1495 31.0928 38.9662 30.8005 39.5308C30.6595 39.8131 30.4277 40.1761 30.2866 40.3475C30.0045 40.6803 29.148 41.1743 28.6442 41.2852L28.3015 41.3659L28.9061 40.7307L29.5208 40.0955V38.5629C29.5208 37.0807 29.5107 37.0302 29.2689 36.7983C29.0371 36.5564 28.9868 36.5463 27.5055 36.5463H25.9738L25.339 37.1613C24.7042 37.7663 24.7042 37.7663 24.7747 37.4336C24.9863 36.516 25.6816 35.659 26.5684 35.2254C27.0924 34.9733 27.9589 34.9229 29.0371 35.0742L29.6216 35.1649L30.3471 34.449C30.7502 34.0457 31.1028 33.7231 31.1331 33.7231C31.1633 33.7231 31.3749 33.9045 31.5865 34.1264Z" fill="white"/>
<path d="M50.7319 38.4115L50.48 38.6535V49.4523V60.2511L50.7319 60.4931L50.9737 60.7452H56.1229H61.272L61.5139 60.4931L61.7658 60.2511V49.4523V38.6535L61.5139 38.4115L61.272 38.1594H56.1229H50.9737L50.7319 38.4115ZM60.1535 45.4191V51.0656H56.1229H52.0922V45.4191V39.7727H56.1229H60.1535V45.4191ZM60.1535 55.9054V59.1319H56.1229H52.0922V55.9054V52.6789H56.1229H60.1535V55.9054Z" fill="white"/>
<path d="M53.7046 42.1928V42.9994H54.5107H55.3168V42.1928V41.3862H54.5107H53.7046V42.1928Z" fill="white"/>
<path d="M56.9292 42.1928V42.9994H57.7353H58.5415V42.1928V41.3862H57.7353H56.9292V42.1928Z" fill="white"/>
<path d="M53.7046 45.4191V46.2258H54.5107H55.3168V45.4191V44.6125H54.5107H53.7046V45.4191Z" fill="white"/>
<path d="M56.9292 45.4191V46.2258H57.7353H58.5415V45.4191V44.6125H57.7353H56.9292V45.4191Z" fill="white"/>
<path d="M53.7046 48.6457V49.4523H54.5107H55.3168V48.6457V47.8391H54.5107H53.7046V48.6457Z" fill="white"/>
<path d="M56.9292 48.6457V49.4523H57.7353H58.5415V48.6457V47.8391H57.7353H56.9292V48.6457Z" fill="white"/>
<path d="M55.3172 53.6167C54.8234 53.778 53.977 54.6451 53.8258 55.1593C53.5437 56.1071 53.7452 56.8634 54.4607 57.5692C55.4784 58.5976 56.7682 58.5976 57.7859 57.5692C58.7734 56.5911 58.8037 55.3308 57.8665 54.2922C57.2116 53.5662 56.2744 53.3142 55.3172 53.6167ZM56.6775 55.3509C57.1813 55.845 56.8287 56.7121 56.1233 56.7121C55.7102 56.7121 55.3172 56.3189 55.3172 55.9055C55.3172 55.4921 55.7102 55.0988 56.1233 55.0988C56.3147 55.0988 56.5264 55.1896 56.6775 55.3509Z" fill="white"/>
</g>
</g>
</g>
</g>
<defs>
<clipPath id="clip0_1_1972">
<rect width="50" height="50" fill="white" transform="translate(15 17.2)"/>
</clipPath>
<clipPath id="clip1_1_1972">
<rect width="50" height="50" fill="white" transform="translate(15 17.2)"/>
</clipPath>
<clipPath id="clip2_1_1972">
<rect width="50" height="50" fill="white" transform="translate(15 17.2)"/>
</clipPath>
</defs>
</svg>
