<svg width="70" height="70" viewBox="0 0 70 70" fill="none" xmlns="http://www.w3.org/2000/svg">
<rect width="70" height="70" rx="15" fill="#EFF3FA"/>
<path d="M54.5556 29.9856C53.9008 29.2626 53.347 28.4551 52.9077 27.5821C52.5858 26.6163 52.3866 25.6123 52.3212 24.5947C52.3403 22.7259 51.7182 20.9063 50.5615 19.4385C49.0964 18.2845 47.285 17.6624 45.4216 17.6788C44.3986 17.6134 43.3891 17.4169 42.4179 17.0923C41.5449 16.653 40.7374 16.0992 40.0144 15.4444C38.6721 14.0804 36.9015 13.2183 35 13C33.0984 13.2183 31.3278 14.0804 29.9856 15.4444C29.2626 16.0992 28.4551 16.653 27.5821 17.0923C26.6163 17.4142 25.6123 17.6134 24.5947 17.6788C22.7259 17.6597 20.9063 18.2818 19.4385 19.4385C18.2845 20.9035 17.6624 22.715 17.6788 24.5784C17.6134 25.6014 17.4169 26.6109 17.0923 27.5821C16.653 28.4551 16.0992 29.2626 15.4444 29.9856C14.0804 31.3279 13.2183 33.0985 13 35C13.2183 36.9016 14.0804 38.6722 15.4444 40.0144C16.0992 40.7374 16.653 41.5449 17.0923 42.4179C17.4142 43.3837 17.6134 44.3877 17.6788 45.4053C17.6597 47.2741 18.2818 49.0937 19.4385 50.5615C20.9035 51.7155 22.715 52.3376 24.5784 52.3212C25.6014 52.3866 26.6109 52.5831 27.5821 52.9077C28.4551 53.347 29.2626 53.9008 29.9856 54.5556C31.3279 55.9196 33.0985 56.7817 35 57C36.9016 56.7817 38.6722 55.9196 40.0144 54.5556C40.7374 53.9008 41.5449 53.347 42.4179 52.9077C43.3837 52.5858 44.3877 52.3866 45.4053 52.3212C47.2741 52.3403 49.0937 51.7182 50.5615 50.5615C51.7155 49.0964 52.3376 47.285 52.3212 45.4216C52.3866 44.3986 52.5831 43.3891 52.9077 42.4179C53.347 41.5449 53.9008 40.7374 54.5556 40.0144C55.9196 38.6721 56.7817 36.9015 57 35C56.7817 33.0984 55.9196 31.3278 54.5556 29.9856ZM39.5725 38.9832C39.2806 40.3255 38.3421 41.4358 37.0653 41.9433C36.8471 42.0361 36.6261 42.1097 36.3969 42.167V43.3811C36.3969 44.1532 35.7722 44.7779 35.0001 44.7779C34.228 44.7779 33.6033 44.1531 33.6033 43.3811V42.0688C33.2459 41.9461 32.9049 41.7824 32.5884 41.5777L31.1261 40.6611C30.8123 40.4619 30.5914 40.1482 30.5068 39.7881C30.4249 39.428 30.4904 39.0487 30.6868 38.7323C31.0961 38.0802 31.9582 37.8838 32.6129 38.293L34.0834 39.2179C34.6509 39.5698 35.3548 39.6271 35.9713 39.3707C36.4051 39.2124 36.7324 38.8523 36.8498 38.4076C36.9644 37.8511 36.8334 37.5646 36.2932 37.1881C35.7149 36.8362 35.1038 36.5361 34.4708 36.296C32.5365 35.4776 29.4019 34.1599 30.5613 30.6051C30.9869 29.372 31.9581 28.4089 33.194 27.9942C33.3249 27.9451 33.464 27.9069 33.6032 27.8796V26.6192C33.6032 25.8471 34.2279 25.2224 35 25.2224C35.7721 25.2224 36.3968 25.8471 36.3968 26.6192V27.9669C36.7651 28.0842 37.1198 28.2425 37.4499 28.4444L38.9013 29.3528C39.5533 29.7648 39.7497 30.6269 39.3378 31.2817C38.9286 31.9337 38.0637 32.1301 37.4117 31.7182L35.9576 30.7961C35.4092 30.4714 34.7435 30.4059 34.1406 30.6214C33.7205 30.7497 33.3795 31.0634 33.2239 31.4754C32.9293 32.3757 33.1039 32.6894 35.4992 33.6989C36.3286 34.0181 37.1252 34.4191 37.8782 34.8911C39.2804 35.7368 39.9654 37.3954 39.5725 38.9832Z" fill="#008CF0"/>
</svg>
