<svg width="80" height="80" viewBox="0 0 80 80" fill="none" xmlns="http://www.w3.org/2000/svg">
<path fill-rule="evenodd" clip-rule="evenodd" d="M38.0575 0.503369C39.2655 -0.16779 40.7343 -0.16779 41.9423 0.503369L47.3007 3.48013C55.1815 7.85844 63.8547 10.6259 72.8151 11.6215L76.4415 12.0245C77.5011 12.1422 78.4695 12.6778 79.1323 13.5125C79.7951 14.3472 80.0975 15.4119 79.9723 16.4704L77.5819 36.6536C76.1055 49.1207 69.3739 60.3639 59.0811 67.5523L42.2903 79.2791C40.9147 80.2403 39.0855 80.2403 37.7095 79.2791L20.9187 67.5523C10.626 60.3639 3.89428 49.1207 2.41788 36.6536L0.027761 16.4704C-0.0975589 15.4119 0.204722 14.3472 0.867561 13.5125C1.5304 12.6778 2.49896 12.1422 3.55828 12.0245L7.18495 11.6215C16.1453 10.6259 24.8183 7.85844 32.6992 3.48013L38.0575 0.503369ZM58.4987 35.1236C60.2239 33.7436 60.5035 31.2262 59.1235 29.5012C57.7435 27.7761 55.2263 27.4965 53.5011 28.8765L36.2968 42.64L30.8284 37.1716C29.2663 35.6096 26.7336 35.6096 25.1715 37.1716C23.6094 38.7336 23.6094 41.2664 25.1715 42.8284L33.1716 50.8283C34.6128 52.2695 36.9072 52.3967 38.4987 51.1235L58.4987 35.1236Z" fill="white"/>
</svg>
